<?xml version="1.0" encoding="utf-8" ?>
<svg baseProfile="full" height="200mm" version="1.1" viewBox="0,0,200,200" width="200mm" xmlns="http://www.w3.org/2000/svg" xmlns:ev="http://www.w3.org/2001/xml-events" xmlns:xlink="http://www.w3.org/1999/xlink"><defs /><rect fill="#1a1a1a" height="200" width="200" x="0" y="0" /><text alignment-baseline="middle" fill="#e1ed5e" style="dominant-baseline: central; font-size:9.0px; font-family:Arial;" text-anchor="middle" x="100.0" y="100.0">2023</text><line stroke="#e1ed5e" stroke-width="0.3" x1="100.0" x2="100.0" y1="15.0" y2="10.0" /><path d="M 100.0 14.0 a86.0,86.0 0 0,1 42.46469731375804,11.215312516191453" fill="none" id="id37" stroke="none" /><text fill="#e1ed5e" style="font-size:6.75px; font-family:Arial;" text-anchor="middle"><textPath startOffset="22.20632615414155" xlink:href="#id37">January</textPath></text><line stroke="#e1ed5e" stroke-width="0.3" x1="143.23703022742887" x2="145.7803849466894" y1="26.81831364943548" y2="22.513508569990506" /><path d="M 143.74570117128098 25.957352633546492 a86.0,86.0 0 0,1 28.547481713284135,27.462654790039103" fill="none" id="id38" stroke="none" /><text fill="#e1ed5e" style="font-size:6.75px; font-family:Arial;" text-anchor="middle"><textPath startOffset="19.985693538727396" xlink:href="#id38">February</textPath></text><path d="M 110.99172775467656 82.1063720568725 l 7.172201460080509 -11.675753559783548 a34.70268933358628,34.70268933358628 0 0,0 0.5062971129993421,0.3170432057124016 l -7.372117725452114 11.550566012748202" fill="red" stroke="none" /><line stroke="#e1ed5e" stroke-width="0.3" x1="172.23445277983987" x2="176.4835382374775" y1="55.19839476539836" y2="52.563006222186495" /><path d="M 173.08426987136738 54.67131705675599 a86.0,86.0 0 0,1 12.851231095245387,41.99856678651699" fill="none" id="id39" stroke="none" /><text fill="#e1ed5e" style="font-size:6.75px; font-family:Arial;" text-anchor="middle"><textPath startOffset="22.20632615414155" xlink:href="#id39">March</textPath></text><path d="M 118.89224826269711 90.83032412892265 l 28.363947296834514 -13.76692702317696 a52.52842821834108,52.52842821834108 0 0,0 0.38781439931548867,0.8168360299609875 l -28.596719889991757 13.27664857757543" fill="red" stroke="none" /><path d="M 119.34039704204932 91.81776055985345 l 28.91531996300148 -12.233051416231834 a52.39654878350363,52.39654878350363 0 0,0 0.34426606733966175,0.8336675890025053 l -29.121607717227338 11.733509256776026" fill="red" stroke="none" /><path d="M 119.7369772167798 92.82701384747503 l 29.39002931071151 -10.681183392602208 a52.27077711779614,52.27077711779614 0 0,0 0.300051483106068,0.8482859481081109 l -29.569533874627385 10.173699818067483" fill="red" stroke="none" /><path d="M 119.85752413597 93.16781622104841 l 35.529233736471404 -12.224195360447531 a58.573360271756435,58.573360271756435 0 0,0 0.31981809531622296,0.956215397779984 l -35.734389125559396 11.610806859745232" fill="red" stroke="none" /><path d="M 119.97218684219823 93.5106431181261 l 29.74182920400863 -9.663706110377468 a52.27240988776157,52.27240988776157 0 0,0 0.27068275835784134,0.8581383147283715 l -29.90376744613468 9.150317629222677" fill="red" stroke="none" /><path d="M 120.28053869075195 94.5502522615342 l 29.926170583273027 -8.041703573263757 a51.98781505913895,51.98781505913895 0 0,0 0.22479449073419108,0.866224872242763 l -30.060161405877523 7.525382275472143" fill="red" stroke="none" /><path d="M 120.45610955862082 95.25157060432595 l 60.42665708392596 -14.026700138526977 a83.03329108724228,83.03329108724228 0 0,0 0.31119933686950724,1.3950456071281663 l -60.6591508077975 12.984476361848847" fill="red" stroke="none" /><path d="M 120.67395015179393 96.31383870115 l 30.731022808078823 -5.479335401192645 a52.2156832260552,52.2156832260552 0 0,0 0.15015275759386615,0.8862100749792567 l -30.82078742719291 4.949539537897551" fill="red" stroke="none" /><path d="M 120.87857604477298 97.74499172005257 l 31.04606453832922 -3.353156481724799 a52.2266197611755,52.2266197611755 0 0,0 0.08884214160811926,0.8946282417471488 l -31.099183805619568 2.818252709273215" fill="red" stroke="none" /><path d="M 120.91429891909075 98.10471618934814 l 38.1883793267407 -3.4606857907599706 a59.34486486800292,59.34486486800292 0 0,0 0.08343751275667229,1.0181489951012892 l -38.24229132331687 2.8028228784509124" fill="red" stroke="none" /><path d="M 120.96714384426684 98.82574320788733 l 31.113837677663565 -1.7425184609337059 a52.162594012994035,52.162594012994035 0 0,0 0.0424911318449213,0.8969206356107502 l -31.139222417741983 1.206686718699956" fill="red" stroke="none" /><path d="M 120.98425023603335 99.18683210126433 l 31.084858720527713 -1.2045800523700188 a52.10818951301627,52.10818951301627 0 0,0 0.027017613751470135,0.8965830683184942 l -31.10098802873483 0.6693268366265254" fill="red" stroke="none" /><line stroke="#e1ed5e" stroke-width="0.3" x1="184.98032266829074" x2="189.97916517819016" y1="98.17113171792111" y2="98.06355123074" /><path d="M 185.9800911702706 98.14961562048488 a86.0,86.0 0 0,1 -9.607161424134198,41.387399972396054" fill="none" id="id40" stroke="none" /><text fill="#e1ed5e" style="font-size:6.75px; font-family:Arial;" text-anchor="middle"><textPath startOffset="21.466115282336823" xlink:href="#id40">April</textPath></text><path d="M 120.99980553446 99.90962569577887 l 62.065141944386404 -0.26710218865623575 a83.0657166892965,83.0657166892965 0 0,0 -0.006153598123948254,1.429879489018985 l -62.06054404897295 -0.8012867785664339" fill="red" stroke="none" /><path d="M 120.89721153311464 102.0752229133903 l 31.112902234937234 3.089704457348271 a52.26593928086153,52.26593928086153 0 0,0 -0.096611593941372,0.8945033722708473 l -31.055108339494808 -3.6248041515039096" fill="red" stroke="none" /><path d="M 120.81339534386255 102.79330883721812 l 30.852768563730635 4.140665646228986 a52.12938226243794,52.12938226243794 0 0,0 -0.12701187206552317,0.8883207374036929 l -30.776922640648507 -4.671131855613088" fill="red" stroke="none" /><path d="M 120.70491114924044 103.5080841355445 l 37.733310074670165 6.393247742064708 a59.27108968768227,59.27108968768227 0 0,0 -0.179093405100784,1.0044509258788488 l -37.61767022723019 -7.041817418676775" fill="red" stroke="none" /><path d="M 120.5718875245553 104.21870165774334 l 49.77885088930313 10.208208678790214 a71.81477659391216,71.81477659391216 0 0,0 -0.25875876689370136,1.2088348136982434 l -49.595758083684984 -11.063557311904626" fill="red" stroke="none" /><path d="M 120.41448212921028 104.9243191809786 l 36.75391779570221 8.86566806994915 a58.808075111803184,58.808075111803184 0 0,0 -0.2458420772810735,0.9820168933493452 l -36.595864404126075 -9.49701280269589" fill="red" stroke="none" /><path d="M 120.13307415673323 105.97154293290107 l 59.53082694365253 17.65705953088323 a83.09421154884133,83.09421154884133 0 0,0 -0.41853061626567284,1.3677822699756095 l -59.21806955488072 -18.679168773410897" fill="red" stroke="none" /><path d="M 119.9155931802556 106.66101706037122 l 35.86408751429128 11.9951887259968 a58.81689206961651,58.81689206961651 0 0,0 -0.32940027632425123,0.9573913918497798 l -35.65229640702379 -12.610752820935879" fill="red" stroke="none" /><path d="M 118.81262510543309 109.33194174019688 l 9.273757040739198 4.60021713779463 a31.352032040402467,31.352032040402467 0 0,0 -0.24398051337838497,0.48139669933285517 l -9.193197857574544 -4.75916804883018" fill="red" stroke="none" /><line stroke="#e1ed5e" stroke-width="0.3" x1="174.80103733775053" x2="179.2010983576182" y1="140.37084112569926" y2="142.7455964860345" /><path d="M 175.68104954172406 140.8457921977663 a86.0,86.0 0 0,1 -30.038265399797805,32.042727171017184" fill="none" id="id41" stroke="none" /><text fill="#e1ed5e" style="font-size:6.75px; font-family:Arial;" text-anchor="middle"><textPath startOffset="22.206326154141568" xlink:href="#id41">May</textPath></text><path d="M 117.75023020441432 111.22182372390056 l 26.2858617208356 16.61811161123333 a52.09836265674285,52.09836265674285 0 0,0 -0.48574314448614603,0.7538841471829913 l -25.995913712972406 -17.068117358337776" fill="red" stroke="none" /><path d="M 117.55443506779137 111.5257021239791 l 31.22638644514118 20.50228487473836 a58.35546674191372,58.35546674191372 0 0,0 -0.558536552258689,0.8349363623921813 l -30.868846787471767 -21.036758151336347" fill="red" stroke="none" /><path d="M 117.14729908036423 112.12312394758627 l 25.491308989221537 18.022330923033532 a52.21876432345293,52.21876432345293 0 0,0 -0.5252218210613901,0.7294871722556422 l -25.177307375784544 -18.458451700740305" fill="red" stroke="none" /><path d="M 116.71984013943494 112.70617746262583 l 29.7332531525437 22.595670051075448 a58.344753956751646,58.344753956751646 0 0,0 -0.6145458012534567,0.79438328972777 l -29.339900534072175 -23.10413133491647" fill="red" stroke="none" /><path d="M 116.498646956653 112.99209946851258 l 48.816720017871944 38.441436068366215 a83.1354662033012,83.1354662033012 0 0,0 -0.8950209419778791,1.116676240878444 l -48.14778116383921 -39.27604014282291" fill="red" stroke="none" /><path d="M 116.0416608686014 113.55231037782055 l 23.735354863458966 20.052094273287885 a52.071748506306335,52.071748506306335 0 0,0 -0.5843379797741762,0.6797170834419078 l -23.386674374114012 -20.457688455891322" fill="red" stroke="none" /><path d="M 115.80600337817218 113.82643327865902 l 28.156674688549874 24.630286013209876 a58.4092143543452,58.4092143543452 0 0,0 -0.6684827509076247,0.751047457181703 l -27.72853308799391 -25.111307640132445" fill="red" stroke="none" /><path d="M 114.81725581225074 114.88116024355365 l 21.907129014394233 22.001610923789826 a52.04823964245222,52.04823964245222 0 0,0 -0.6403173900182669,0.6266853350788262 l -21.52516167200017 -22.375446361791223" fill="red" stroke="none" /><path d="M 114.55890576462653 115.13401014063108 l 21.563672978779355 22.415478938191384 a52.10378897118871,52.10378897118871 0 0,0 -0.6517046788187963,0.6162274511782446 l -21.174632465569754 -22.78334102611555" fill="red" stroke="none" /><path d="M 112.34349029814194 116.9893568818739 l 18.292298191850772 25.177188515130933 a52.12071648702883,52.12071648702883 0 0,0 -0.7303667864318415,0.5210973096782051 l -17.856204077570045 -25.48833008665336" fill="red" stroke="none" /><line stroke="#e1ed5e" stroke-width="0.3" x1="143.8653032363475" x2="146.44561519142675" y1="172.8068346515853" y2="177.08958963109032" /><path d="M 144.38136562736335 173.6633856474863 a86.0,86.0 0 0,1 -40.68145358897372,12.25698825130547" fill="none" id="id42" stroke="none" /><text fill="#e1ed5e" style="font-size:6.75px; font-family:Arial;" text-anchor="middle"><textPath startOffset="21.466115282336833" xlink:href="#id42">June</textPath></text><path d="M 110.8373102113329 117.98757091392108 l 16.055052422494803 26.647884792884085 a52.1106809990376,52.1106809990376 0 0,0 -0.7723103899757765,0.456294591468953 l -15.593974161490644 -26.920297956646785" fill="red" stroke="none" /><path d="M 108.92500713936063 119.00905698771935 l 26.371070527868344 56.16681025168647 a83.04952807745406,83.04952807745406 0 0,0 -1.2992584718979026,0.5964258398444474 l -25.40034406020302 -56.612423161864996" fill="red" stroke="none" /><path d="M 107.2578585660854 119.70592522655815 l 10.782216790951352 29.274965325430248 a52.197432486219384,52.197432486219384 0 0,0 -0.8457983457338327,0.30327319471639497 l -10.276698884587786 -29.4562260611866" fill="red" stroke="none" /><path d="M 106.57524785965236 119.94407469862006 l 11.70695481236111 35.50959389741453 a58.38962489432014,58.38962489432014 0 0,0 -0.9572524532981467,0.30648200650992574 l -11.093981013972023 -35.70584875058417" fill="red" stroke="none" /><path d="M 105.88484417918355 120.15858648285463 l 10.43609189717212 35.74892633458815 a58.24107608759489,58.24107608759489 0 0,0 -0.9647740527105911,0.2726547841635514 l -9.819186676356924 -35.92326991209022" fill="red" stroke="none" /><path d="M 104.83641907484287 120.43548508189849 l 8.653796077187888 36.5651772314438 a58.575262773697915,58.575262773697915 0 0,0 -0.9831714224641376,0.22376661482150056 l -8.023104505330888 -36.70872057984298" fill="red" stroke="none" /><path d="M 104.48393922423573 120.51570834832081 l 8.015118986117189 36.672183826108075 a58.537863537200394,58.537863537200394 0 0,0 -0.9862474261496843,0.2066777372537756 l -7.382680098538126 -36.80471754408839" fill="red" stroke="none" /><path d="M 104.13013068566511 120.58985236759428 l 6.1145124218503755 30.4825482890129 a52.089757354295415,52.089757354295415 0 0,0 -0.8806452766607907,0.16877776322546412 l -5.588899530617881 -30.58328325058683" fill="red" stroke="none" /><path d="M 102.70371172650421 120.8252237178851 l 4.817395466085173 37.10578214951309 a58.417193481122844,58.417193481122844 0 0,0 -0.9983013696512697,0.12088039314624142 l -4.177966673382523 -37.183208071384676" fill="red" stroke="none" /><path d="M 102.34483914955558 120.86867818915974 l 4.21122687583919 37.479218337891034 a58.71506647242052,58.71506647242052 0 0,0 -1.0053344757913183,0.10420702898043992 l -3.5654598034422698 -37.546154735327235" fill="red" stroke="none" /><path d="M 101.98527174616119 120.90594882070398 l 2.935201475582325 30.90920522373495 a52.04825881213348,52.04825881213348 0 0,0 -0.8926417220404167,0.07702088381812829 l -2.402715435800366 -30.95515035983174" fill="red" stroke="none" /><path d="M 101.26447882468166 120.96189622390904 l 1.8714191957379198 31.023449508824708 a52.07984281222755,52.07984281222755 0 0,0 -0.8953068881126013,0.04627713955572937 l -1.3371242392118388 -31.05106645514264" fill="red" stroke="none" /><line stroke="#e1ed5e" stroke-width="0.3" x1="102.19456741930631" x2="102.32365962044197" y1="184.97166512339345" y2="189.96999836594603" /><path d="M 102.22038585953345 185.97133177190398 a86.0,86.0 0 0,1 -42.740103519485714,-10.115201625700543" fill="none" id="id43" stroke="none" /><text fill="#e1ed5e" style="font-size:6.75px; font-family:Arial;" text-anchor="middle"><textPath startOffset="22.20632615414155" xlink:href="#id43">July</textPath></text><path d="M 99.09653310690486 120.98055641714683 l -1.329256623219437 30.86836251495577 a51.896969552451246,51.896969552451246 0 0,0 -0.8921631057912751,-0.04611464191927928 l 1.860407797424201 -30.84090806627429" fill="red" stroke="none" /><path d="M 98.73552117531835 120.96189622390904 l -1.8758981463160178 31.09769930674774 a52.15422757874524,52.15422757874524 0 0,0 -0.8956550784621938,-0.0617696181122767 l 2.410915985557142 -31.060801344119177" fill="red" stroke="none" /><path d="M 97.65516085044442 120.86867818915974 l -3.466209250245492 30.848685460310364 a52.042809170493115,52.042809170493115 0 0,0 -0.8893684304123644,-0.10769013124530276 l 3.9967051037092456 -30.784449800339715" fill="red" stroke="none" /><path d="M 96.58105272829116 120.7198165907248 l -10.093732665244751 61.17096080137771 a82.99814420191234,82.99814420191234 0 0,0 -1.4076130677820091,-0.2447315747190915 l 11.145194704498811 -60.98815064813761" fill="red" stroke="none" /><path d="M 96.22490169976321 120.6578951692458 l -5.595231898515714 30.61793490249184 a52.12498285447553,52.12498285447553 0 0,0 -0.8812408096778069,-0.16889189854555134 l 6.121440322765216 -30.517085805597823" fill="red" stroke="none" /><path d="M 94.81253420990036 120.34920634021253 l -7.679088843077929 30.123256652766326 a52.08663694947259,52.08663694947259 0 0,0 -0.866894162649947,-0.22895462743428682 l 8.196473448539367 -29.98661067602846" fill="red" stroke="none" /><path d="M 94.11515582081647 120.15858648285463 l -8.721331031205297 29.874997618466697 a52.12197130098374,52.12197130098374 0 0,0 -0.859081840417989,-0.2588343113621454 l 9.234287846063532 -29.720447937998827" fill="red" stroke="none" /><path d="M 92.7421414339146 119.70592522655815 l -10.793436018387128 29.305426825187546 a52.22989437205061,52.22989437205061 0 0,0 -0.8409753644635816,-0.31798492343868473 l 11.296281603610993 -29.115293651642226" fill="red" stroke="none" /><path d="M 90.10565033884886 118.52300852407294 l -14.661328456157642 27.447171493638685 a52.11754770383666,52.11754770383666 0 0,0 -0.7876628925021747,-0.42949661130977546 l 15.131614160528457 -27.190734230569145" fill="red" stroke="none" /><line stroke="#e1ed5e" stroke-width="0.3" x1="58.666819895761336" x2="56.23545636021788" y1="174.27360380694188" y2="178.64263932499728" /><path d="M 58.180547188652646 175.14741091055294 a86.0,86.0 0 0,1 -31.652253787137756,-30.449443065178592" fill="none" id="id44" stroke="none" /><text fill="#e1ed5e" style="font-size:6.75px; font-family:Arial;" text-anchor="middle"><textPath startOffset="22.20632615414155" xlink:href="#id44">August</textPath></text><path d="M 88.24862548938628 117.40417183066458 l -17.49124139387328 25.905103311587446 a52.25728560004475,52.25728560004475 0 0,0 -0.7411653687746944,-0.5097802989498816 l 17.934563647270867 -25.600182223272462" fill="red" stroke="none" /><path d="M 83.06392112726016 112.41649034213515 l -25.073209756457835 18.38213373512846 a52.08968781038948,52.08968781038948 0 0,0 -0.5239235559238217,-0.7276839955290303 l 25.38591310475726 -17.947816134148287" fill="red" stroke="none" /><line stroke="#e1ed5e" stroke-width="0.3" x1="26.63291911575756" x2="22.317208475507996" y1="142.92168965132927" y2="145.44649492493687" /><path d="M 25.769776987707644 143.4266507060508 a86.0,86.0 0 0,1 -11.730757126820373,-40.83630448921669" fill="none" id="id45" stroke="none" /><text fill="#e1ed5e" style="font-size:6.75px; font-family:Arial;" text-anchor="middle"><textPath startOffset="21.46611528233685" xlink:href="#id45">September</textPath></text><path d="M 81.69416730710424 110.29060199501025 l -27.11743994235285 15.244036491093034 a52.10845861769576,52.10845861769576 0 0,0 -0.43280687857359224,-0.7856702018671202 l 27.37582323037796 -14.774995770828092" fill="red" stroke="none" /><path d="M 81.35079622478065 109.6543875284942 l -27.62896492090817 14.303062885293722 a52.111690897497695,52.111690897497695 0 0,0 -0.4055315164836176,-0.8001521548071238 l 27.871075107178054 -13.825356518783911" fill="red" stroke="none" /><path d="M 80.73074385275274 108.34839909993369 l -34.536680648553485 14.9630059114799 a58.63872814173124,58.63872814173124 0 0,0 -0.3932955868044726,-0.929634589567573 l 34.78912721655026 -14.366296796246168" fill="red" stroke="none" /><path d="M 80.58989483394504 108.01547362559985 l -29.212777551699105 12.063522891450187 a52.605615906632764,52.605615906632764 0 0,0 -0.3384229135412411,-0.8399379175482161 l 29.416103079497734 -11.558885606059166" fill="red" stroke="none" /><path d="M 80.32549172779595 107.34259656027581 l -29.228247223858236 10.908085963804902 a52.19738410785004,52.19738410785004 0 0,0 -0.30691002744338386,-0.8444845829123783 l 29.411681512306842 -10.403353583886407" fill="red" stroke="none" /><path d="M 79.76711848015287 105.62410040840567 l -29.925108405839147 8.31823258796682 a52.05970229233915,52.05970229233915 0 0,0 -0.23256289605328423,-0.8654530517351323 l 30.063859378234206 -7.801888603056149" fill="red" stroke="none" /><path d="M 79.58551787078972 104.9243191809786 l -30.264298928190932 7.300261979103453 a52.1323242720238,52.1323242720238 0 0,0 -0.20291746108190517,-0.8741631114974883 l 30.38547695520339 -6.778230210257391" fill="red" stroke="none" /><path d="M 79.29508885075956 103.50808413554451 l -36.83024030340058 6.240238404567673 a58.355149258864884,58.355149258864884 0 0,0 -0.15927689426205519,-0.9918173726115022 l 36.932198952023924 -5.6053418022629575" fill="red" stroke="none" /><path d="M 79.18660465613746 102.79330883721812 l -30.77186748705098 4.129808134098171 a52.047755858758755,52.047755858758755 0 0,0 -0.11152716479679343,-0.8889812359866798 l 30.83839616109462 -3.599509143824083" fill="red" stroke="none" /><path d="M 79.1416061653843 102.43462659150553 l -37.10790715767455 4.331296946328728 a58.35983012354139,58.35983012354139 0 0,0 -0.10787591858026,-0.9987970285990508 l 37.17696537775586 -3.691903595844895" fill="red" stroke="none" /><path d="M 79.0235259727143 100.99374915477108 l -31.052934611579023 1.4711160456842172 a52.087761746559885,52.087761746559885 0 0,0 -0.03471988423841176,-0.8959659378557804 l 31.073656628668637 -0.93637286081444" fill="red" stroke="none" /><line stroke="#e1ed5e" stroke-width="0.3" x1="15.007084014347285" x2="10.007500721073583" y1="101.09737516637583" y2="101.16192664675087" /><path d="M 14.007167355692545 101.11028546245083 a86.0,86.0 0 0,1 10.666146001902534,-42.60595125391555" fill="none" id="id46" stroke="none" /><text fill="#e1ed5e" style="font-size:6.75px; font-family:Arial;" text-anchor="middle"><textPath startOffset="22.20632615414155" xlink:href="#id46">October</textPath></text><path d="M 79.00175016825051 100.2711162175752 l -62.64483348359348 0.8088307568862434 a83.65005482344321,83.65005482344321 0 0,0 -0.006196886524859626,-1.4399381888770308 l 62.649474667407844 0.26961691019446277" fill="red" stroke="none" /><path d="M 79.01574976396665 99.18683210126434 l -31.081779933918405 -1.2044607452511065 a52.105108415618545,52.105108415618545 0 0,0 0.04244430464731377,-0.8959321874801827 l 31.056442021037594 1.7393040393542982" fill="red" stroke="none" /><path d="M 79.16333360222342 97.38593545837743 l -37.107157804671765 -4.655279477332134 a58.39803186469687,58.39803186469687 0 0,0 0.13371481043822536,-0.9963306512687831 l 37.021526995175705 5.293328470665576" fill="red" stroke="none" /><path d="M 79.3925641242962 95.95851677861259 l -30.91125161000984 -6.062244011698167 a52.500099659440856,52.500099659440856 0 0,0 0.1815521048476928,-0.8853125401550224 l 30.80232020924715 6.5934322080165915" fill="red" stroke="none" /><path d="M 79.46518482838121 95.60439243477599 l -36.57124614109549 -7.828307431256817 a58.3997117843288,58.3997117843288 0 0,0 0.21887548166142512,-0.9811758671191289 l 36.43107627243203 8.456661467925905" fill="red" stroke="none" /><path d="M 79.62865764111835 94.90015583598534 l -30.32145359659913 -7.5907952183444785 a52.25717070141755,52.25717070141755 0 0,0 0.225959180274677,-0.8707128961490089 l 30.186298084454144 8.111604540042352" fill="red" stroke="none" /><path d="M 79.81627453868168 94.20196356495316 l -36.15449088713253 -10.385845559379293 a58.61665853436517,58.61665853436517 0 0,0 0.28692603944521305,-0.9673719664344592 l 35.970358950575616 11.00664691256029" fill="red" stroke="none" /><path d="M 79.91906864156998 93.8553929516997 l -29.746604095275195 -9.102226880034364 a52.10805344885249,52.10805344885249 0 0,0 0.2698316697179067,-0.8554401311588283 l 29.585516941789088 9.612917177619607" fill="red" stroke="none" /><path d="M 80.2630227832202 92.82701384747504 l -58.39291138000733 -21.22166632377293 a83.12963239059883,83.12963239059883 0 0,0 0.5003430520818175,-1.3406706246643838 l 58.01896373942388 22.223660085466655" fill="red" stroke="none" /><path d="M 80.803312248108 91.48605970444005 l -28.51340465673111 -12.64600581142563 a52.19191735211393,52.19191735211393 0 0,0 0.37130245360219355,-0.8181157385071203 l 28.291499886165564 13.13494355877482" fill="red" stroke="none" /><path d="M 81.26839172434947 90.50648371742162 l -27.782341665692257 -14.080590896952517 a52.14677428621786,52.14677428621786 0 0,0 0.41268104654753035,-0.7971684281909169 l 27.535851185984615 14.556732047403768" fill="red" stroke="none" /><path d="M 81.6062741919709 89.86733742301443 l -27.19773463438661 -14.982579972369534 a52.0514809931984,52.0514809931984 0 0,0 0.4390724817789286,-0.7810609520606169 l 26.935804511315254 15.448524434364934" fill="red" stroke="none" /><line stroke="#e1ed5e" stroke-width="0.3" x1="26.266209847984257" x2="21.92892807433627" y1="57.711370442889674" y2="55.22380399835377" /><path d="M 25.39875349325466 57.213857153982495 a86.0,86.0 0 0,1 29.58750427330802,-30.492523968695096" fill="none" id="id47" stroke="none" /><text fill="#e1ed5e" style="font-size:6.75px; font-family:Arial;" text-anchor="middle"><textPath startOffset="21.46611528233685" xlink:href="#id47">November</textPath></text><path d="M 81.96595687620814 89.24020034530311 l -26.712223861794268 -15.937534091017918 a52.105431945963545,52.105431945963545 0 0,0 0.4661803564818614,-0.766277932184722 l 26.433927707026186 16.394979796409714" fill="red" stroke="none" /><path d="M 82.34701348167596 88.62581576622439 l -31.371502175115378 -20.213307536357366 a58.319551849970416,58.319551849970416 0 0,0 0.5509902529263028,-0.8391959564751854 l 31.018915286831156 20.750321556810217" fill="red" stroke="none" /><path d="M 82.7489923806493 88.02491185347247 l -30.673791079028373 -21.292747650723 a58.339825410374516,58.339825410374516 0 0,0 0.5797516821900092,-0.8200176398291826 l 30.302726777034486 21.81759179088397" fill="red" stroke="none" /><path d="M 83.17141714833178 87.43820079747576 l -29.88376677533782 -22.306921560519047 a58.291262598495294,58.291262598495294 0 0,0 0.6071286478573961,-0.7989101337601836 l 29.495362187256312 22.818016470160256" fill="red" stroke="none" /><path d="M 83.84228863543731 86.58626213691792 l -23.955267827865505 -19.887079044353776 a52.13439849460951,52.13439849460951 0 0,0 0.5791619924297737,-0.6855451219407481 l 23.609395221948606 20.29648311592364" fill="red" stroke="none" /><path d="M 84.31358615837235 86.03803664274997 l -10.823045514447415 -9.63323844520504 a35.489223483333284,35.489223483333284 0 0,0 0.41008027465853414,-0.45282088163461376 l 10.655621599172836 9.81811211410921" fill="red" stroke="none" /><path d="M 84.80347519578584 85.50635884689758 l -27.02093897326963 -25.771141635609077 a58.34009753870208,58.34009753870208 0 0,0 0.6993470195017647,-0.7207385779351155 l 26.573327690064747 26.232444409094317" fill="red" stroke="none" /><path d="M 85.83668400450813 84.49514656593479 l -41.99240832944769 -45.969894105218295 a83.26229614583815,83.26229614583815 0 0,0 1.0665068005124172,-0.9575203357793225 l 41.1948905413393 46.6859134497669" fill="red" stroke="none" /><path d="M 86.37877921826538 84.01681056812374 l -28.189431285128535 -33.07758000745741 a64.45998545016703,64.45998545016703 0 0,0 0.8506951969161523,-0.7124327627331172 l 27.61587855125327 33.55791392758434" fill="red" stroke="none" /><path d="M 87.51073957382395 83.11751280151077 l -36.94069417848755 -49.93496614615562 a83.11373222087248,83.11373222087248 0 0,0 1.1574762030148364,-0.8409556866444549 l 36.07567265911893 50.56344106761674" fill="red" stroke="none" /><line stroke="#e1ed5e" stroke-width="0.3" x1="56.762969772571076" x2="54.21961505331055" y1="26.818313649435495" y2="22.513508569990535" /><path d="M 56.25429882871897 25.957352633546506 a86.0,86.0 0 0,1 42.265352541879196,-11.944610805530505" fill="none" id="id48" stroke="none" /><text fill="#e1ed5e" style="font-size:6.75px; font-family:Arial;" text-anchor="middle"><textPath startOffset="22.20632615414155" xlink:href="#id48">December</textPath></text><path d="M 89.3179101791058 81.91981866633112 l -18.93661518914715 -32.051540682235924 a58.22763294821285,58.22763294821285 0 0,0 0.8673235165243284,-0.5024097626302132 l 18.382094940157504 32.37275460225619" fill="red" stroke="none" /><path d="M 89.94658935756843 81.56283822128135 l -29.361231149513422 -53.84618096083275 a82.33101253592594,82.33101253592594 0 0,0 1.2500786272104845,-0.6677487096913878 l 28.430007475774634 54.34360839702589" fill="red" stroke="none" /><path d="M 90.91171255644093 81.06846463323043 l -6.25146283504295 -13.022232240193553 a35.445044828433716,35.445044828433716 0 0,0 0.5523043318726497,-0.25931428940676776 l 6.026380291870692 13.12791151224033" fill="red" stroke="none" /><path d="M 91.23893434514133 80.91482961587045 l -12.929815417348836 -28.166405777200897 a51.99236262585748,51.99236262585748 0 0,0 0.81657194748417,-0.36637203033519833 l 12.443061351397892 28.384798138052624" fill="red" stroke="none" /><path d="M 91.56875222667455 80.76684994638697 l -24.920455873963775 -56.847916241387196 a83.07024006683034,83.07024006683034 0 0,0 1.3145519056412396,-0.5628225223311092 l 23.93822021053223 57.26845829168109" fill="red" stroke="none" /><path d="M 92.57280143429618 80.3572730644239 l -10.966650847918215 -29.00352348167611 a52.007608827065056,52.007608827065056 0 0,0 0.8400904813546217,-0.3094124140981224 l 10.465778040791026 29.187999163580553" fill="red" stroke="none" /><path d="M 93.25333710446033 80.11325718540243 l -9.964290798136872 -29.37115600712973 a52.01534936616043,52.01534936616043 0 0,0 0.8503696640221563,-0.2803535083862209 l 9.457238311872308 29.53832323977518" fill="red" stroke="none" /><path d="M 93.59665428221793 80.00007090966166 l -18.89757720037571 -59.02386356200351 a82.97527647239798,82.97527647239798 0 0,0 1.3640132924591957,-0.42380556964355165 l 17.878778535205786 59.34040926652959" fill="red" stroke="none" /><path d="M 95.692805502759 79.44645832069477 l -12.715967728007021 -60.679445253216855 a82.9975073006799,82.9975073006799 0 0,0 1.4008145008503587,-0.28099021069196034 l 11.669586817689526 60.88933941998603" fill="red" stroke="none" /><path d="M 97.47563105711357 79.15227682838746 l -7.453417959310721 -61.55470844937667 a83.00431897508382,83.00431897508382 0 0,0 1.41990072039763,-0.15954239015483657 l 6.392750535403373 61.673886793002104" fill="red" stroke="none" /><path d="M 98.19473922651362 79.07773832637324 l -5.415782320459142 -62.766785020880285 a84.0,84.0 0 0,0 1.4416392425506632,-0.11189895124615123 l 4.334552888546145 62.8507092343149" fill="red" stroke="none" /><path d="M 99.27714615592234 79.0124445844662 l -2.1324917029883474 -61.9154040008474 a82.95211677942461,82.95211677942461 0 0,0 1.4274612170613337,-0.03686711181588697 l 1.066403850732135 61.94293790480565" fill="red" stroke="none" /></svg>