<?xml version="1.0" encoding="utf-8" ?>
<svg baseProfile="full" height="200mm" version="1.1" viewBox="0,0,200,200" width="200mm" xmlns="http://www.w3.org/2000/svg" xmlns:ev="http://www.w3.org/2001/xml-events" xmlns:xlink="http://www.w3.org/1999/xlink"><defs /><rect fill="#1a1a1a" height="200" width="200" x="0" y="0" /><text alignment-baseline="middle" fill="#e1ed5e" style="dominant-baseline: central; font-size:9.0px; font-family:Arial;" text-anchor="middle" x="100.0" y="100.0">2025</text><line stroke="#e1ed5e" stroke-width="0.3" x1="100.0" x2="100.0" y1="15.0" y2="10.0" /><path d="M 100.0 14.0 a86.0,86.0 0 0,1 42.46469731375804,11.215312516191453" fill="none" id="id61" stroke="none" /><text fill="#e1ed5e" style="font-size:6.75px; font-family:Arial;" text-anchor="middle"><textPath startOffset="22.20632615414155" xlink:href="#id61">January</textPath></text><path d="M 100.72285384407766 79.0124445844662 l 1.0620988406536092 -30.837296443286235 a51.855581438022384,51.855581438022384 0 0,0 0.8918151727677807,0.03840343732242923 l -1.5927548458107212 30.81444527943961" fill="#90ff24" stroke="none" /><path d="M 102.52436894288641 79.15227682838746 l 0.39546949154440963 -3.2660196148306118 a24.289875414540905,24.289875414540905 0 0,0 0.41464583726153764,0.05383293009175923 l -0.4516300573137934 3.258728361574716" fill="#ff0300" stroke="none" /><path d="M 102.88285421437855 79.19881850522331 l 0.562038194519834 -4.055376242368828 a25.094137686896794,25.094137686896794 0 0,0 0.4273543831537426,0.06298092720588404 l -0.6317615581022322 4.0451008310019745" fill="#ff0f01" stroke="none" /><path d="M 103.2404852339499 79.25152402106235 l 0.7555786518718748 -4.837888271890839 a25.896535717266183,25.896535717266183 0 0,0 0.4398351405966811,0.07257656685136202 l -0.838742998607431 4.8241654420998525" fill="#ff1b02" stroke="none" /><path d="M 103.59715602781102 79.31037775812273 l 5.307267738552294 -30.525605172030556 a51.98353856433084,51.98353856433084 0 0,0 0.8802666636100739,0.16086310625182668 l -5.831929523265269 30.42972658442799" fill="#8eff24" stroke="none" /><path d="M 105.71112130821622 79.79150937346287 l 0.8395485427826129 -2.970696635866839 a24.087050413912763,24.087050413912763 0 0,0 0.39802105332460486,0.11619325992137132 l -0.8905598138306449 2.955805047026764" fill="#ff0000" stroke="none" /><path d="M 106.0581310904928 79.89281104454417 l 1.6348419358674455 -5.4261083535113785 a26.66704155793098,26.66704155793098 0 0,0 0.4383739434442348,0.13620491812313787 l -1.7280012520223984 5.39716330050572" fill="#ff2703" stroke="none" /><path d="M 106.40334571778207 80.00007090966166 l 8.980385817884963 -28.04894308030427 a50.45149465409554,50.45149465409554 0 0,0 0.8248030837283735,0.27192460883105374 l -9.461871723855754 27.89020474721398" fill="#a0ff22" stroke="none" /><path d="M 108.76106565485865 80.91482961587045 l 1.8097833685039026 -3.942445509138029 a25.337994056408554,25.337994056408554 0 0,0 0.3948163684389601,0.185371578891611 l -1.8773779482424608 3.9107089476064147" fill="#ff1302" stroke="none" /><line stroke="#e1ed5e" stroke-width="0.3" x1="143.23703022742887" x2="145.7803849466894" y1="26.81831364943548" y2="22.513508569990506" /><path d="M 143.74570117128098 25.957352633546492 a86.0,86.0 0 0,1 28.547481713284135,27.462654790039103" fill="none" id="id62" stroke="none" /><text fill="#e1ed5e" style="font-size:6.75px; font-family:Arial;" text-anchor="middle"><textPath startOffset="19.985693538727396" xlink:href="#id62">February</textPath></text><path d="M 112.77801427241765 83.33499621200491 l 17.917617915363337 -23.36804170550383 a50.44667052335655,50.44667052335655 0 0,0 0.6845551809407143,0.5343061769585785 l -18.317205651463482 23.056157139322025" fill="#a0ff22" stroke="none" /><path d="M 114.16331599549186 84.49514656593476 l 19.954612425310145 -21.84469661529051 a50.58677622280648,50.58677622280648 0 0,0 0.6378561680015931,0.5928177920810045 l -20.327676477106586 21.497974237134866" fill="#9eff22" stroke="none" /><path d="M 115.4437574822437 85.77008943001954 l 21.676523137943875 -19.972793931509006 a50.4751446608891,50.4751446608891 0 0,0 0.583243563942395,0.6440321106691209 l -22.017110342502303 19.596709033570338" fill="#9fff22" stroke="none" /><path d="M 115.92442197804982 86.31012108654704 l 22.350325778185358 -19.21408852398767 a50.47402687449836,50.47402687449836 0 0,0 0.5607168935422078,0.6637119427415562 l -22.677753285214685 18.826517631617005" fill="#9fff22" stroke="none" /><path d="M 116.38621287248628 86.86637796730983 l 22.96793374161187 -18.40890039581378 a50.43490435082244,50.43490435082244 0 0,0 0.5371219311283414,0.6820903069468843 l -23.281409753334174 18.01081769491386" fill="#a0ff22" stroke="none" /><path d="M 116.82858285166822 87.43820079747576 l 23.61476520691726 -17.627386771586906 a50.46832028081931,50.46832028081931 0 0,0 0.5136650917927509,0.7006386079368789 l -23.91469291122364 17.218285719978535" fill="#9fff22" stroke="none" /><path d="M 117.2510076193507 88.02491185347247 l 12.10910735120907 -8.405748296339283 a35.74066095073475,35.74066095073475 0 0,0 0.346472578590403,0.5084057566107466 l -12.252004395468207 8.19606451645813" fill="#ffa70f" stroke="none" /><path d="M 117.45458315368197 88.32363383020206 l 24.59224610707476 -16.451156006175957 a50.58748219315853,50.58748219315853 0 0,0 0.47793936551874816,0.7279344432201708 l -24.871782107951432 16.025403498978115" fill="#9eff22" stroke="none" /><line stroke="#e1ed5e" stroke-width="0.3" x1="172.23445277983987" x2="176.4835382374775" y1="55.19839476539836" y2="52.563006222186495" /><path d="M 173.08426987136738 54.67131705675599 a86.0,86.0 0 0,1 12.851231095245387,41.99856678651699" fill="none" id="id63" stroke="none" /><text fill="#e1ed5e" style="font-size:6.75px; font-family:Arial;" text-anchor="middle"><textPath startOffset="22.20632615414155" xlink:href="#id63">March</textPath></text><path d="M 117.84615892207809 88.93136811851018 l 25.010160178316845 -15.511923743344642 a50.43005080465212,50.43005080465212 0 0,0 0.4511909446579635,0.7416392803467013 l -25.27346692126103 15.07911668979086" fill="#a0ff22" stroke="none" /><path d="M 118.03404312379186 89.2402003453031 l 50.5387240460415 -30.15333510110194 a79.85054159412027,79.85054159412027 0 0,0 0.6940925645862565,1.1864291862884349 l -51.050276285098086 29.278926502459612" fill="#48faff" stroke="none" /><path d="M 118.73160827565052 90.50648371742162 l 26.282751866493864 -13.320571790937787 a50.465584645705135,50.465584645705135 0 0,0 0.3860376601802266,0.7782283665860109 l -26.5081495396275 12.866183835852826" fill="#9fff22" stroke="none" /><path d="M 119.34039704204932 91.81776055985345 l 27.1309161932869 -11.478133155248827 a50.45902500451737,50.45902500451737 0 0,0 0.3315357691185949,0.8028401621019946 l -27.324473649291694 11.009418422693528" fill="#9fff22" stroke="none" /><path d="M 119.47837535516314 92.15188598940014 l 22.25837334274551 -8.96821467392347 a44.99716771418286,44.99716771418286 0 0,0 0.2832817051842798,0.7209210406813383 l -22.40944859781149 8.583744628346347" fill="#e0ff1b" stroke="none" /><path d="M 119.97218684219823 93.5106431181261 l 27.98989337430068 -9.094467652769216 a50.430315543534135,50.430315543534135 0 0,0 0.2611438222475396,0.8278972805093601 l -28.142292680316427 8.611320205833437" fill="#a0ff22" stroke="none" /><path d="M 120.18372546131832 94.20196356495316 l 28.288162228668938 -8.126140815612622 a50.4321981311396,50.4321981311396 0 0,0 0.23250018897679298,0.8364268834672277 l -28.423849188212095 7.6380026287264435" fill="#a0ff22" stroke="none" /><path d="M 120.37134235888165 94.90015583598534 l 30.518534294872023 -7.640133196727068 a52.460333290844375,52.460333290844375 0 0,0 0.21175788335471957,0.8778731366891629 l -30.645524978487558 7.113674828378499" fill="#89ff24" stroke="none" /><path d="M 120.6074358757038 95.95851677861258 l 16.651238630696426 -3.2656028604033924 a37.968438642912076,37.968438642912076 0 0,0 0.12025920050505816,0.6424294578259163 l -16.704983555111344 2.9784953251149133" fill="#ffc512" stroke="none" /><path d="M 120.67395015179393 96.31383870115 l 62.02185045538181 -11.058483896549978 a84.0,84.0 0 0,0 0.2415525539191079,1.4256568467366484 l -62.20301487082114 9.98924126149749" fill="#4dd2ff" stroke="none" /><path d="M 120.78858239683441 97.02765380044208 l 29.138480948793237 -4.16621256109434 a50.43481610452844,50.43481610452844 0 0,0 0.11548132119466685,0.8604699776949626 l -29.20587826904574 3.664024241334713" fill="#a0ff22" stroke="none" /><path d="M 120.87857604477298 97.74499172005257 l 29.27248825601866 -3.1615998739775977 a50.442728855557625,50.442728855557625 0 0,0 0.08580758395964296,0.8640706603516929 l -29.322572965660534 2.65725368292147" fill="#a0ff22" stroke="none" /><path d="M 120.96714384426684 98.82574320788733 l 29.382536699343806 -1.6455576183848446 a50.42858003308535,50.42858003308535 0 0,0 0.04107862125116359,0.8671047694628705 l -29.406508928828465 1.1395417422989742" fill="#a0ff22" stroke="none" /><line stroke="#e1ed5e" stroke-width="0.3" x1="184.98032266829074" x2="189.97916517819016" y1="98.17113171792111" y2="98.06355123074" /><path d="M 185.9800911702706 98.14961562048488 a86.0,86.0 0 0,1 -9.607161424134198,41.387399972396054" fill="none" id="id64" stroke="none" /><text fill="#e1ed5e" style="font-size:6.75px; font-family:Arial;" text-anchor="middle"><textPath startOffset="21.466115282336823" xlink:href="#id64">April</textPath></text><path d="M 120.99513854157772 99.54816195383933 l 30.155983024963643 -0.648989308790239 a51.162965691801915,51.162965691801915 0 0,0 0.011370342700962047,0.8806455727468041 l -30.16268637478232 0.12980747798297215" fill="#97ff23" stroke="none" /><path d="M 120.99824983174949 100.27111621757518 l 29.46768795611295 0.38046828489808265 a50.47014403756211,50.47014403756211 0 0,0 -0.01869302936203823,0.8685916216054647 l -29.456772864065904 -0.8876497222936622" fill="#9fff22" stroke="none" /><path d="M 120.9764740272857 100.99374915477107 l 11.448175127540006 0.542351128310009 a32.46101472371468,32.46101472371468 0 0,0 -0.031245502926662554,0.5579094442971854 l -11.437143273725814 -0.7393322889426177" fill="#ff7a0b" stroke="none" /><path d="M 120.95626037817324 101.35467743843564 l 38.17503121438602 2.4677520017630687 a59.254709620667,59.254709620667 0 0,0 -0.07455777826301907,1.0172816479682727 l -38.12689687745866 -3.1245067862281113" fill="#40ff2d" stroke="none" /><path d="M 120.64145759157962 103.86396538481128 l 33.825273489010655 6.331901965422677 a55.41281896482894,55.41281896482894 0 0,0 -0.1835749299709781,0.9360446129639103 l -33.71126862606401 -6.913210305454532" fill="#68ff28" stroke="none" /><path d="M 120.5718875245553 104.21870165774334 l 29.35066622124271 6.01897633824948 a50.961469987155255,50.961469987155255 0 0,0 -0.18362136259969264,0.8578178753665259 l -29.242710819918578 -6.523308033032175" fill="#9aff23" stroke="none" /><path d="M 120.49622156327973 104.57218783832717 l 2.9971865779471853 0.6685964034189882 a24.07085469107406,24.07085469107406 0 0,0 -0.0936922876198234,0.40362392291121446 l -2.9852337243968092 -0.7200889836787675" fill="#ff0000" stroke="none" /><path d="M 120.41448212921028 104.9243191809786 l 38.138634900611976 9.199685311081101 a60.23250797368299,60.23250797368299 0 0,0 -0.2517967957962808,1.0058030337926187 l -37.97462679052064 -9.854816184271115" fill="#36ff2e" stroke="none" /><path d="M 120.23288151984713 105.62410040840565 l 28.84622004331912 8.018335785115413 a50.9399084759865,50.9399084759865 0 0,0 -0.24210371153579271,0.8427947808791567 l -28.703923694897227 -8.513688041499153" fill="#9aff23" stroke="none" /><path d="M 120.13307415673323 105.97154293290107 l 32.74378740213854 9.711926292799308 a55.15372784562781,55.15372784562781 0 0,0 -0.2777994191690683,0.9078645752113369 l -32.571761210463336 -10.274117840562702" fill="#6bff28" stroke="none" /><path d="M 119.9155931802556 106.66101706037122 l 28.052545659191605 9.382521702038492 a50.580010673599375,50.580010673599375 0 0,0 -0.2832701441049781,0.8233156345843243 l -27.886884684143396 -9.864010039712117" fill="#9eff22" stroke="none" /><path d="M 119.41010516605496 108.01547362559984 l 27.736773319292073 11.454001567638764 a51.00871116987972,51.00871116987972 0 0,0 -0.3421203294724986,0.8086713981614224 l -27.535502008627265 -11.92974749146635" fill="#99ff23" stroke="none" /><path d="M 119.26925614724726 108.34839909993367 l 27.082752992834088 11.733594124306737 a50.51529672466176,50.51529672466176 0 0,0 -0.35254605202115763,0.7948982778680935 l -26.876765856081654 -12.198040738667517" fill="#9fff22" stroke="none" /><path d="M 118.97047184881838 109.00673069616215 l 26.58663090771055 12.622702619751937 a50.43096268302351,50.43096268302351 0 0,0 -0.37906491549048243,0.7809860012296338 l -26.365412735605354 -13.078477576946845" fill="#a0ff22" stroke="none" /><path d="M 118.81262510543309 109.33194174019688 l 37.159329354500095 18.432764948940363 a62.47990575856094,62.47990575856094 0 0,0 -0.4862166338425037,0.9593515459552644 l -36.83653405087133 -19.069670706598323" fill="#31ff43" stroke="none" /><line stroke="#e1ed5e" stroke-width="0.3" x1="174.80103733775053" x2="179.2010983576182" y1="140.37084112569926" y2="142.7455964860345" /><path d="M 175.68104954172406 140.8457921977663 a86.0,86.0 0 0,1 -30.038265399797805,32.042727171017184" fill="none" id="id65" stroke="none" /><text fill="#e1ed5e" style="font-size:6.75px; font-family:Arial;" text-anchor="middle"><textPath startOffset="22.206326154141568" xlink:href="#id65">May</textPath></text><path d="M 118.48025628344425 109.97397251340804 l 32.878325941885 17.744749542516324 a58.36121589385792,58.36121589385792 0 0,0 -0.4847415630944029,0.8799467397212387 l -32.56800796933909 -18.308066800635366" fill="#49ff2c" stroke="none" /><line stroke="#e1ed5e" stroke-width="0.3" x1="143.8653032363475" x2="146.44561519142675" y1="172.8068346515853" y2="177.08958963109032" /><path d="M 144.38136562736335 173.6633856474863 a86.0,86.0 0 0,1 -40.68145358897372,12.25698825130547" fill="none" id="id66" stroke="none" /><text fill="#e1ed5e" style="font-size:6.75px; font-family:Arial;" text-anchor="middle"><textPath startOffset="21.466115282336833" xlink:href="#id66">June</textPath></text><line stroke="#e1ed5e" stroke-width="0.3" x1="102.19456741930631" x2="102.32365962044197" y1="184.97166512339345" y2="189.96999836594603" /><path d="M 102.22038585953345 185.97133177190398 a86.0,86.0 0 0,1 -42.740103519485714,-10.115201625700543" fill="none" id="id67" stroke="none" /><text fill="#e1ed5e" style="font-size:6.75px; font-family:Arial;" text-anchor="middle"><textPath startOffset="22.20632615414155" xlink:href="#id67">July</textPath></text><line stroke="#e1ed5e" stroke-width="0.3" x1="58.666819895761336" x2="56.23545636021788" y1="174.27360380694188" y2="178.64263932499728" /><path d="M 58.180547188652646 175.14741091055294 a86.0,86.0 0 0,1 -31.652253787137756,-30.449443065178592" fill="none" id="id68" stroke="none" /><text fill="#e1ed5e" style="font-size:6.75px; font-family:Arial;" text-anchor="middle"><textPath startOffset="22.20632615414155" xlink:href="#id68">August</textPath></text><line stroke="#e1ed5e" stroke-width="0.3" x1="26.63291911575756" x2="22.317208475507996" y1="142.92168965132927" y2="145.44649492493687" /><path d="M 25.769776987707644 143.4266507060508 a86.0,86.0 0 0,1 -11.730757126820373,-40.83630448921669" fill="none" id="id69" stroke="none" /><text fill="#e1ed5e" style="font-size:6.75px; font-family:Arial;" text-anchor="middle"><textPath startOffset="21.46611528233685" xlink:href="#id69">September</textPath></text><line stroke="#e1ed5e" stroke-width="0.3" x1="15.007084014347285" x2="10.007500721073583" y1="101.09737516637583" y2="101.16192664675087" /><path d="M 14.007167355692545 101.11028546245083 a86.0,86.0 0 0,1 10.666146001902534,-42.60595125391555" fill="none" id="id70" stroke="none" /><text fill="#e1ed5e" style="font-size:6.75px; font-family:Arial;" text-anchor="middle"><textPath startOffset="22.20632615414155" xlink:href="#id70">October</textPath></text><line stroke="#e1ed5e" stroke-width="0.3" x1="26.266209847984257" x2="21.92892807433627" y1="57.711370442889674" y2="55.22380399835377" /><path d="M 25.39875349325466 57.213857153982495 a86.0,86.0 0 0,1 29.58750427330802,-30.492523968695096" fill="none" id="id71" stroke="none" /><text fill="#e1ed5e" style="font-size:6.75px; font-family:Arial;" text-anchor="middle"><textPath startOffset="21.46611528233685" xlink:href="#id71">November</textPath></text><line stroke="#e1ed5e" stroke-width="0.3" x1="56.762969772571076" x2="54.21961505331055" y1="26.818313649435495" y2="22.513508569990535" /><path d="M 56.25429882871897 25.957352633546506 a86.0,86.0 0 0,1 42.265352541879196,-11.944610805530505" fill="none" id="id72" stroke="none" /><text fill="#e1ed5e" style="font-size:6.75px; font-family:Arial;" text-anchor="middle"><textPath startOffset="22.20632615414155" xlink:href="#id72">December</textPath></text></svg>