<?xml version="1.0" encoding="utf-8" ?>
<svg baseProfile="full" height="200mm" version="1.1" viewBox="0,0,200,200" width="200mm" xmlns="http://www.w3.org/2000/svg" xmlns:ev="http://www.w3.org/2001/xml-events" xmlns:xlink="http://www.w3.org/1999/xlink"><defs /><rect fill="#1a1a1a" height="200" width="200" x="0" y="0" /><text alignment-baseline="middle" fill="#e1ed5e" style="dominant-baseline: central; font-size:9.0px; font-family:Arial;" text-anchor="middle" x="100.0" y="100.0">2022</text><line stroke="#e1ed5e" stroke-width="0.3" x1="100.0" x2="100.0" y1="15.0" y2="10.0" /><path d="M 100.0 14.0 a86.0,86.0 0 0,1 42.46469731375804,11.215312516191453" fill="none" id="id25" stroke="none" /><text fill="#e1ed5e" style="font-size:6.75px; font-family:Arial;" text-anchor="middle"><textPath startOffset="22.20632615414155" xlink:href="#id25">January</textPath></text><line stroke="#e1ed5e" stroke-width="0.3" x1="143.23703022742887" x2="145.7803849466894" y1="26.81831364943548" y2="22.513508569990506" /><path d="M 143.74570117128098 25.957352633546492 a86.0,86.0 0 0,1 28.547481713284135,27.462654790039103" fill="none" id="id26" stroke="none" /><text fill="#e1ed5e" style="font-size:6.75px; font-family:Arial;" text-anchor="middle"><textPath startOffset="19.985693538727396" xlink:href="#id26">February</textPath></text><line stroke="#e1ed5e" stroke-width="0.3" x1="172.23445277983987" x2="176.4835382374775" y1="55.19839476539836" y2="52.563006222186495" /><path d="M 173.08426987136738 54.67131705675599 a86.0,86.0 0 0,1 12.851231095245387,41.99856678651699" fill="none" id="id27" stroke="none" /><text fill="#e1ed5e" style="font-size:6.75px; font-family:Arial;" text-anchor="middle"><textPath startOffset="22.20632615414155" xlink:href="#id27">March</textPath></text><line stroke="#e1ed5e" stroke-width="0.3" x1="184.98032266829074" x2="189.97916517819016" y1="98.17113171792111" y2="98.06355123074" /><path d="M 185.9800911702706 98.14961562048488 a86.0,86.0 0 0,1 -9.607161424134198,41.387399972396054" fill="none" id="id28" stroke="none" /><text fill="#e1ed5e" style="font-size:6.75px; font-family:Arial;" text-anchor="middle"><textPath startOffset="21.466115282336823" xlink:href="#id28">April</textPath></text><path d="M 119.54520255179757 107.68017299344265 l 29.410773837263864 11.556791511502112 a52.599889995805555,52.599889995805555 0 0,0 -0.33838607756105077,0.839846493666289 l -29.20748514544542 -12.061337373011215" fill="red" stroke="none" /><path d="M 118.64920377521936 109.65438752849418 l 28.025926483359104 14.508563388372028 a52.55869082907367,52.55869082907367 0 0,0 -0.4228409041216815,0.7998556388429542 l -27.77203307101253 -14.988834042301116" fill="red" stroke="none" /><line stroke="#e1ed5e" stroke-width="0.3" x1="174.80103733775053" x2="179.2010983576182" y1="140.37084112569926" y2="142.7455964860345" /><path d="M 175.68104954172406 140.8457921977663 a86.0,86.0 0 0,1 -30.038265399797805,32.042727171017184" fill="none" id="id29" stroke="none" /><text fill="#e1ed5e" style="font-size:6.75px; font-family:Arial;" text-anchor="middle"><textPath startOffset="22.206326154141568" xlink:href="#id29">May</textPath></text><path d="M 117.75023020441432 111.22182372390056 l 32.200151913798 20.35716858306418 a59.09546030685237,59.09546030685237 0 0,0 -0.5509811297417332,0.8551349490453067 l -31.844965920679222 -20.908425132030942" fill="red" stroke="none" /><path d="M 117.55443506779137 111.5257021239791 l 31.928129879544798 20.96302802945452 a59.1949475947903,59.1949475947903 0 0,0 -0.56657145913942,0.8469474579883925 l -31.562555314994654 -21.50951240164872" fill="red" stroke="none" /><path d="M 117.35343817320211 111.8261652097733 l 31.73470670221196 21.62683155915535 a59.403273984954645,59.403273984954645 0 0,0 -0.5831112862313155,0.8400152983109899 l -31.357734508818506 -22.169888119653358" fill="red" stroke="none" /><path d="M 116.93607887273984 112.41649034213515 l 25.553683771984414 18.73438770242871 a52.685454658304835,52.685454658304835 0 0,0 -0.5425064751859523,0.7267760786527083 l -25.227416030103367 -19.17147666059073" fill="red" stroke="none" /><path d="M 116.498646956653 112.99209946851258 l 29.91112020560521 23.553946571912963 a59.071820432791164,59.071820432791164 0 0,0 -0.6359562143888652,0.7934531601882849 l -29.501246079161493 -24.065327565679496" fill="red" stroke="none" /><path d="M 116.0416608686014 113.55231037782055 l 28.96045759558336 24.466363753348382 a58.91188546428074,58.91188546428074 0 0,0 -0.6610965278555294,0.76900461606345 l -28.535018558157052 -24.961245468573363" fill="red" stroke="none" /><path d="M 115.32070863581623 114.36230785411682 l 23.025854900124422 21.585451726867362 a52.561396042230214,52.561396042230214 0 0,0 -0.6244630458529554,0.6547470070064666 l -22.6508853028925 -21.978605850456336" fill="red" stroke="none" /><path d="M 114.55890576462653 115.13401014063108 l 21.834270967206116 22.696766060114726 a52.49410386496107,52.49410386496107 0 0,0 -0.6565866662424895,0.6208436750056373 l -21.440348466572818 -23.069244371866287" fill="red" stroke="none" /><path d="M 114.0293411484842 115.62618273729858 l 21.093117720463187 23.49396942527986 a52.573504945211624,52.573504945211624 0 0,0 -0.6785928833287114,0.5987793208959407 l -20.685582484227886 -23.85357188794809" fill="red" stroke="none" /><path d="M 113.20401910651253 116.32954008644616 l 19.872527582076156 24.576549999875724 a52.60576153799761,52.60576153799761 0 0,0 -0.709031744915618,0.5632976998966288 l -19.446538344443184 -24.914981613777478" fill="red" stroke="none" /><path d="M 112.63410532772338 116.77436683061366 l 19.008468935913612 25.237642282407357 a52.59526039238082,52.59526039238082 0 0,0 -0.7278558645130984,0.5384503679906261 l -18.571228100981948 -25.56110259913775" fill="red" stroke="none" /><line stroke="#e1ed5e" stroke-width="0.3" x1="143.8653032363475" x2="146.44561519142675" y1="172.8068346515853" y2="177.08958963109032" /><path d="M 144.38136562736335 173.6633856474863 a86.0,86.0 0 0,1 -40.68145358897372,12.25698825130547" fill="none" id="id30" stroke="none" /><text fill="#e1ed5e" style="font-size:6.75px; font-family:Arial;" text-anchor="middle"><textPath startOffset="21.466115282336833" xlink:href="#id30">June</textPath></text><path d="M 110.5260780823613 118.17145234162733 l 16.007104058442472 27.633495234362353 a52.93489375597377,52.93489375597377 0 0,0 -0.7923880535755082,0.449938616878048 l -15.529067237945766 -27.904937017035028" fill="red" stroke="none" /><path d="M 109.57404056367764 118.69057910512821 l 28.722121691032903 56.07173731538463 a84.0,84.0 0 0,0 -1.292584369268958,0.6481286363627916 l -27.752683414081186 -56.55783379265672" fill="red" stroke="none" /><path d="M 108.92500713936063 119.00905698771935 l 13.53979849992867 28.837937860273712 a52.858323927220006,52.858323927220006 0 0,0 -0.8269357666754551,0.37960565184259737 l -13.041394737485795 -29.066730582450383" fill="red" stroke="none" /><path d="M 108.2653958097858 119.30500536409082 l 12.434954481204334 29.043601599533797 a52.5936526350162,52.5936526350162 0 0,0 -0.835308771574022,0.34915913426348844 l -11.933174250132852 -29.25334577681726" fill="red" stroke="none" /><path d="M 107.93186726928326 119.44442032107085 l 11.926156475490444 29.236142190923434 a52.57507273920008,52.57507273920008 0 0,0 -0.8408980408887207,0.3346106846273597 l -11.421137358559857 -29.437099719956866" fill="red" stroke="none" /><path d="M 107.2578585660854 119.70592522655815 l 2.649018821623783 7.192392404364358 a28.664711946033925,28.664711946033925 0 0,0 -0.4644781321627864,0.16654533285318232 l -2.5248211288312623 -7.2369252782575" fill="red" stroke="none" /><path d="M 106.91757812671514 119.82793768551818 l 12.595664480981778 36.103105141971874 a59.23721962446723,59.23721962446723 0 0,0 -0.965652057814286,0.32760160722121495 l -11.972342690230265 -36.31456973609121" fill="red" stroke="none" /><path d="M 106.57524785965236 119.94407469862006 l 9.861852476362124 29.913020262286544 a52.49674452189456,52.49674452189456 0 0,0 -0.8606432662429716,0.2755507956324324 l -9.345487865028211 -30.078343904578684" fill="red" stroke="none" /><path d="M 105.88484417918355 120.15858648285463 l 8.834275097252396 30.261888529051706 a52.525010925274636,52.525010925274636 0 0,0 -0.8700863902794337,0.2458951049510105 l -8.312057538868356 -30.409472427341235" fill="red" stroke="none" /><path d="M 104.83641907484287 120.43548508189849 l 8.928088293650625 37.724153410071835 a59.766254798288884,59.766254798288884 0 0,0 -1.0031619315547147,0.228316389607006 l -8.277406212703049 -37.87224653325653" fill="red" stroke="none" /><path d="M 103.7750983002368 120.6578951692458 l 5.661784255549473 30.982119224469077 a52.49519824664713,52.49519824664713 0 0,0 -0.8902961356343817,0.15478939505971306 l -5.127639148443042 -31.074987198049797" fill="red" stroke="none" /><path d="M 102.70371172650421 120.8252237178851 l 4.880052167628562 37.588392708277404 a58.90385436272224,58.90385436272224 0 0,0 -1.0066180003503011,0.1218874213033822 l -4.2323067442268805 -37.66682565830614" fill="red" stroke="none" /><line stroke="#e1ed5e" stroke-width="0.3" x1="102.19456741930631" x2="102.32365962044197" y1="184.97166512339345" y2="189.96999836594603" /><path d="M 102.22038585953345 185.97133177190398 a86.0,86.0 0 0,1 -42.740103519485714,-10.115201625700543" fill="none" id="id31" stroke="none" /><text fill="#e1ed5e" style="font-size:6.75px; font-family:Arial;" text-anchor="middle"><textPath startOffset="22.20632615414155" xlink:href="#id31">July</textPath></text><path d="M 100.18074693466247 120.99922214144158 l 0.27569301519179173 32.030080508239934 a53.03126697467581,53.03126697467581 0 0,0 -0.9128798997084723,0.0 l 0.27569301519176964 -32.030080508239934" fill="red" stroke="none" /><path d="M 99.45781275523022 120.99299961872073 l -1.0022166727049524 38.80492289504946 a59.817862887461764,59.817862887461764 0 0,0 -1.0290941175026955,-0.03544408217280812 l 1.670031141882291 -38.78192201445056" fill="red" stroke="none" /><path d="M 98.01472825383883 120.90594882070398 l -3.0134865707894933 31.733588181377954 a52.87635048398137,52.87635048398137 0 0,0 -0.9053624783094171,-0.09384452268059652 l 3.5592816457045036 -31.677014290241598" fill="red" stroke="none" /><path d="M 97.65516085044442 120.86867818915974 l -4.29004990274497 38.18073015916209 a59.4209927468668,59.4209927468668 0 0,0 -1.0154554662815616,-0.1229575153538092 l 4.946632792077922 -38.10122711508293" fill="red" stroke="none" /><path d="M 96.93821686468263 120.77559828337769 l -4.624504676169963 31.379378344426783 a52.71831377583932,52.71831377583932 0 0,0 -0.8966233815125174,-0.14003413220108138 l 5.163963921290997 -31.295125904878596" fill="red" stroke="none" /><path d="M 95.51606077576429 120.51570834832081 l -6.796982957701821 31.098753358434713 a52.83286725659571,52.83286725659571 0 0,0 -0.886786721797694,-0.20182977075145658 l 7.331289828892378 -30.97714685410557" fill="red" stroke="none" /><line stroke="#e1ed5e" stroke-width="0.3" x1="58.666819895761336" x2="56.23545636021788" y1="174.27360380694188" y2="178.64263932499728" /><path d="M 58.180547188652646 175.14741091055294 a86.0,86.0 0 0,1 -31.652253787137756,-30.449443065178592" fill="none" id="id32" stroke="none" /><text fill="#e1ed5e" style="font-size:6.75px; font-family:Arial;" text-anchor="middle"><textPath startOffset="22.20632615414155" xlink:href="#id32">August</textPath></text><path d="M 83.72743513129214 113.27417163493432 l -24.659486912689452 20.115714046893764 a52.82345434445327,52.82345434445327 0 0,0 -0.568687469079463,-0.7095250573723727 l 25.00209229382378 -19.688261155943135" fill="red" stroke="none" /><line stroke="#e1ed5e" stroke-width="0.3" x1="26.63291911575756" x2="22.317208475507996" y1="142.92168965132927" y2="145.44649492493687" /><path d="M 25.769776987707644 143.4266507060508 a86.0,86.0 0 0,1 -11.730757126820373,-40.83630448921669" fill="none" id="id33" stroke="none" /><text fill="#e1ed5e" style="font-size:6.75px; font-family:Arial;" text-anchor="middle"><textPath startOffset="21.46611528233685" xlink:href="#id33">September</textPath></text><line stroke="#e1ed5e" stroke-width="0.3" x1="15.007084014347285" x2="10.007500721073583" y1="101.09737516637583" y2="101.16192664675087" /><path d="M 14.007167355692545 101.11028546245083 a86.0,86.0 0 0,1 10.666146001902534,-42.60595125391555" fill="none" id="id34" stroke="none" /><text fill="#e1ed5e" style="font-size:6.75px; font-family:Arial;" text-anchor="middle"><textPath startOffset="22.20632615414155" xlink:href="#id34">October</textPath></text><line stroke="#e1ed5e" stroke-width="0.3" x1="26.266209847984257" x2="21.92892807433627" y1="57.711370442889674" y2="55.22380399835377" /><path d="M 25.39875349325466 57.213857153982495 a86.0,86.0 0 0,1 29.58750427330802,-30.492523968695096" fill="none" id="id35" stroke="none" /><text fill="#e1ed5e" style="font-size:6.75px; font-family:Arial;" text-anchor="middle"><textPath startOffset="21.46611528233685" xlink:href="#id35">November</textPath></text><path d="M 87.51073957382395 83.11751280151077 l -19.032681993275453 -25.727625106683018 a53.00240112065309,53.00240112065309 0 0,0 0.7381333548681163,-0.5362852736509652 l 18.587003322053555 26.051429615150653" fill="red" stroke="none" /><line stroke="#e1ed5e" stroke-width="0.3" x1="56.762969772571076" x2="54.21961505331055" y1="26.818313649435495" y2="22.513508569990535" /><path d="M 56.25429882871897 25.957352633546506 a86.0,86.0 0 0,1 42.265352541879196,-11.944610805530505" fill="none" id="id36" stroke="none" /><text fill="#e1ed5e" style="font-size:6.75px; font-family:Arial;" text-anchor="middle"><textPath startOffset="22.20632615414155" xlink:href="#id36">December</textPath></text></svg>