<?xml version="1.0" encoding="utf-8" ?>
<svg baseProfile="full" height="200mm" version="1.1" viewBox="0,0,200,200" width="200mm" xmlns="http://www.w3.org/2000/svg" xmlns:ev="http://www.w3.org/2001/xml-events" xmlns:xlink="http://www.w3.org/1999/xlink"><defs /><rect fill="#1a1a1a" height="200" width="200" x="0" y="0" /><text alignment-baseline="middle" fill="#e1ed5e" style="dominant-baseline: central; font-size:9.0px; font-family:Arial;" text-anchor="middle" x="100.0" y="100.0">2024</text><line stroke="#e1ed5e" stroke-width="0.3" x1="100.0" x2="100.0" y1="15.0" y2="10.0" /><path d="M 100.0 14.0 a86.0,86.0 0 0,1 42.35913384403234,11.155469271406648" fill="none" id="id49" stroke="none" /><text fill="#e1ed5e" style="font-size:6.75px; font-family:Arial;" text-anchor="middle"><textPath startOffset="22.145653131862478" xlink:href="#id49">January</textPath></text><path d="M 101.80034050326958 79.07731436759882 l 1.7858171714106055 -20.753902501505372 a41.83059317474411,41.83059317474411 0 0,0 0.7149056263942647,0.06770230610411414 l -2.1418223611898832 20.720188439896074" fill="red" stroke="none" /><path d="M 102.87502721639298 79.19773525538626 l 5.737455910416946 -41.51337285731219 a62.90797688166541,62.90797688166541 0 0,0 1.0684617147953521,0.15702707757502946 l -6.4492427308199805 41.40876470643828" fill="red" stroke="none" /><path d="M 103.58742460773223 79.30868818359171 l 7.142802378199289 -41.1977859915867 a62.81240481510943,62.81240481510943 0 0,0 1.0608275376214205,0.1933181153791802 l -7.848964649371764 41.06909970227615" fill="red" stroke="none" /><path d="M 104.9986988182912 79.60360301121754 l 1.0017130883832641 -4.087331236033306 a25.208290121235926,25.208290121235926 0 0,0 0.41941157786659106,0.10661278299747053 l -1.0717299594752496 4.069533221200567" fill="red" stroke="none" /><path d="M 105.69591212413111 79.78721728523813 l 11.768954721827626 -41.76386843546339 a64.39042523344435,64.39042523344435 0 0,0 1.0613381425260786,0.3089400651815195 l -12.484152876735308 41.55568467597936" fill="red" stroke="none" /><path d="M 108.07796709384702 80.6158196554323 l 16.03894667297785 -38.48763324162588 a62.69587177312081,62.69587177312081 0 0,0 0.9898929529323409,0.42252643893334085 l -16.697274701080623 38.206632153033134" fill="red" stroke="none" /><path d="M 109.3889696526874 81.21577127319529 l 9.463712499201163 -18.933764488080204 a42.16717486953853,42.16717486953853 0 0,0 0.6447015232310521,0.32918919144199754 l -9.787341244145795 18.768517344965375" fill="red" stroke="none" /><line stroke="#e1ed5e" stroke-width="0.3" x1="143.13028292997686" x2="145.6673583964461" y1="26.7553504044142" y2="22.446841604673864" /><path d="M 143.63769802327073 25.89364864446614 a86.0,86.0 0 0,1 29.32050498858742,28.57503671076993" fill="none" id="id50" stroke="none" /><text fill="#e1ed5e" style="font-size:6.75px; font-family:Arial;" text-anchor="middle"><textPath startOffset="20.669276256404974" xlink:href="#id50">February</textPath></text><path d="M 115.8921839302757 86.27271002978787 l 31.49406665444068 -27.20382467277392 a62.61639474127204,62.61639474127204 0 0,0 0.6956545384153949,0.8194792970548926 l -31.95641575636319 26.659178593269473" fill="red" stroke="none" /><line stroke="#e1ed5e" stroke-width="0.3" x1="172.87174338648825" x2="177.1583165268699" y1="56.24261187166439" y2="53.66864786411523" /><path d="M 173.72905801456457 55.72781907015455 a86.0,86.0 0 0,1 12.242430191666344,42.057860355516425" fill="none" id="id51" stroke="none" /><text fill="#e1ed5e" style="font-size:6.75px; font-family:Arial;" text-anchor="middle"><textPath startOffset="22.145653131862474" xlink:href="#id51">March</textPath></text><path d="M 118.8641267826498 90.77261029715802 l 37.38627927432789 -18.287502643419415 a62.6193059878599,62.6193059878599 0 0,0 0.46404108875552785,0.9696674017434211 l -37.69469962104333 17.643022739610892" fill="red" stroke="none" /><path d="M 119.31412917781788 91.75594674310238 l 38.282869350841175 -16.340680485748166 a62.62446305324413,62.62446305324413 0 0,0 0.41354259644118285,0.992351686562641 l -38.55773779181884 15.681096289744247" fill="red" stroke="none" /><path d="M 119.71291397450082 92.76114493625339 l 39.05964350646017 -14.34324212800895 a62.609906820304786,62.609906820304786 0 0,0 0.3618251259655594,1.0120892737972143 l -39.30010880246967 13.670617897830818" fill="red" stroke="none" /><path d="M 120.35273937422433 94.82641323984039 l 40.300040286750956 -10.24411264881044 a62.58166772840248,62.58166772840248 0 0,0 0.2557279858338006,1.0434574495910325 l -40.46995579910105 9.550799374611312" fill="red" stroke="none" /><path d="M 120.51834098615036 95.52812308129327 l 40.81104747294122 -8.89457784845652 a62.76906883018719,62.76906883018719 0 0,0 0.22041594404575654,1.0547700837289125 l -40.95772112781134 8.192691313442202" fill="red" stroke="none" /><path d="M 120.7213421655516 96.59031103205396 l 41.08062527805858 -6.75980125649322 a62.63307202529682,62.63307202529682 0 0,0 0.16546616089333485,1.0624114503499984 l -41.19061293109018 6.0536016242117805" fill="red" stroke="none" /><path d="M 120.86939407059847 97.66154086499901 l 37.82946636825897 -4.238870611279364 a59.06621270584196,59.06621270584196 0 0,0 0.1042591995321228,1.0086131791518755 l -37.896657960272755 3.588852909844557" fill="red" stroke="none" /><path d="M 120.93736805541906 98.37931529534042 l 20.75992465071586 -1.606949462905026 a41.82202579192838,41.82202579192838 0 0,0 0.04926244067355944,0.716265075774004 l -20.784451052554488 1.250340962976688" fill="red" stroke="none" /><path d="M 120.98066250479742 99.09900007780936 l 62.3548311780965 -2.6777847471131615 a83.41230249238356,83.41230249238356 0 0,0 0.04915492150746815,1.431091906966116 l -62.391610786600815 1.6069865755829253" fill="red" stroke="none" /><line stroke="#e1ed5e" stroke-width="0.3" x1="184.99686870605535" x2="189.99668451229388" y1="99.2704041080226" y2="99.22748670261217" /><path d="M 185.99683186730306 99.26182062694052 a86.0,86.0 0 0,1 -10.086455211305974,41.156179273409016" fill="none" id="id52" stroke="none" /><text fill="#e1ed5e" style="font-size:6.75px; font-family:Arial;" text-anchor="middle"><textPath startOffset="21.40746469413373" xlink:href="#id52">April</textPath></text><path d="M 120.99922638620191 100.18025310272382 l 41.61648356570504 0.35722745920309174 a62.61801672151385,62.61801672151385 0 0,0 -0.018453137125562707,1.0748027258652355 l -41.604218996980805 -1.0715771010373984" fill="red" stroke="none" /><path d="M 120.96210409425399 101.26102812881392 l 41.54615233095772 2.499313356033113 a62.62126068199748,62.62126068199748 0 0,0 -0.07376199695821,1.0724832472393073 l -41.497126372834444 -3.212140027426764" fill="red" stroke="none" /><path d="M 120.86939407059847 102.33845913500097 l 41.35475817072666 4.6338869108009035 a62.61356667315811,62.61356667315811 0 0,0 -0.12885846302168313,1.067132924890525 l -41.26911762144531 -5.343113512614837" fill="red" stroke="none" /><path d="M 120.77682067341334 103.0534771498775 l 41.19048948935897 6.053583482528246 a62.63294725758591,62.63294725758591 0 0,0 -0.16546583127778358,1.062409333981726 l -41.08050216594291 -6.759780998441423" fill="red" stroke="none" /><path d="M 120.592083275326 104.11899336999214 l 40.82840336412523 8.166824138949776 a62.6371893597568,62.6371893597568 0 0,0 -0.21995284432934412,1.0525539839418474 l -40.68219280897152 -8.866494574177032" fill="red" stroke="none" /><path d="M 120.35273937422433 105.17358676015961 l 40.32624008129996 10.25077253413129 a62.60870073243267,62.60870073243267 0 0,0 -0.2737208247802813,1.0393625557721327 l -40.144329775714944 -10.941515594276225" fill="red" stroke="none" /><path d="M 120.16314734710363 105.8691983318838 l 39.984171480308156 11.638809582358705 a62.643677280724056,62.643677280724056 0 0,0 -0.30941108266960554,1.0299288637062922 l -39.77848407763492 -12.32347604965572" fill="red" stroke="none" /><path d="M 119.94978838288452 106.5578916946017 l 19.792923069675624 6.5063269504089005 a41.83487686615197,41.83487686615197 0 0,0 -0.23012086498883647,0.6803114475414562 l -19.678316783114422 -6.845140072424517" fill="red" stroke="none" /><path d="M 119.83427380445688 106.89939002012753 l 39.304429666968296 13.672120918798166 a62.614481636371444,62.614481636371444 0 0,0 -0.36185156400841323,1.01216322570842 l -39.06393793291594 -14.344819100887507" fill="red" stroke="none" /><path d="M 119.71291397450082 107.23885506374661 l 39.06300096714378 14.34447503407764 a62.613483494684175,62.613483494684175 0 0,0 -0.37916732761975214,1.0057863842998314 l -38.81100295570958 -15.01292969857163" fill="red" stroke="none" /><line stroke="#e1ed5e" stroke-width="0.3" x1="174.33088141563837" x2="178.70328620479359" y1="141.23008692659167" y2="143.65538615756765" /><path d="M 175.20536237346943 141.71514677278685 a86.0,86.0 0 0,1 -30.301960400862466,31.631185727798858" fill="none" id="id53" stroke="none" /><text fill="#e1ed5e" style="font-size:6.75px; font-family:Arial;" text-anchor="middle"><textPath startOffset="22.145653131862474" xlink:href="#id53">May</textPath></text><path d="M 118.36410011445183 110.18625677009912 l 36.38936241821463 20.184565918393417 a62.61252694223388,62.61252694223388 0 0,0 -0.5294236055543219,0.9354407826243919 l -36.03750544763893 -20.80626347111693" fill="red" stroke="none" /><path d="M 117.62189284568427 111.42229804090321 l 34.91958469539454 22.63445291310139 a62.613649851632054,62.613649851632054 0 0,0 -0.5923715245473408,0.8969259888573041 l -34.52588873192647 -23.23055878029776" fill="red" stroke="none" /><path d="M 117.423217284605 111.72311816256416 l 4.3031170711529505 2.8953292074849246 a26.18649667384095,26.18649667384095 0 0,0 -0.2541465132847744,0.37080735814305354 l -4.252780821052856 -2.9687713006980223" fill="red" stroke="none" /><path d="M 117.01052211995028 112.31430620078461 l 33.706810857947936 24.401131666022923 a62.612069460627204,62.612069460627204 0 0,0 -0.6377426289192968,0.8652203581472772 l -33.28296620944481 -24.976158333439077" fill="red" stroke="none" /><path d="M 116.1254893667686 113.45245675266167 l 31.959481570299303 26.66173620429443 a62.620387308021115,62.620387308021115 0 0,0 -0.695698894964353,0.8195315489580184 l -31.497088111827836 -27.206434535702005" fill="red" stroke="none" /><path d="M 115.41159269507618 114.26474011684316 l 30.579326922083144 28.303768476236982 a62.66771585969244,62.66771585969244 0 0,0 -0.7375219232284118,0.7832227244356171 l -30.08894916511847 -28.824532660617095" fill="red" stroke="none" /><path d="M 114.65682725009322 115.03919595460226 l 29.051057224897015 29.808943971200268 a62.62375603621564,62.62375603621564 0 0,0 -0.7763184159373893,0.7436954814349944 l -28.535066323094313 -30.30325158294084" fill="red" stroke="none" /><path d="M 114.13192950727249 115.5334660781643 l 22.403886890569378 24.625796276056878 a54.29210101563557,54.29210101563557 0 0,0 -0.6947707766732992,0.6212683126704731 l -21.9778510870727 -25.006760118610735" fill="red" stroke="none" /><path d="M 112.7482090630111 116.68781488649013 l 20.560525065974808 26.914387313082372 a54.86915167858781,54.86915167858781 0 0,0 -0.7533978994058382,0.5653638292100543 l -20.0954741776582 -27.263370169556442" fill="red" stroke="none" /><path d="M 112.16784306229584 117.11559508785304 l 24.116067889251894 33.92226962415556 a62.62096955733868,62.62096955733868 0 0,0 -0.8814793331718072,0.6153410336888795 l -23.53019346490633 -34.33125547364956" fill="red" stroke="none" /><path d="M 110.96478420261333 117.91015095944535 l 21.728797869268206 35.49235833689412 a62.6154797780587,62.6154797780587 0 0,0 -0.9215425586589607,0.5533598284063668 l -21.11632255405181 -35.86013216583641" fill="red" stroke="none" /><line stroke="#e1ed5e" stroke-width="0.3" x1="143.1302829299769" x2="145.66735839644613" y1="173.24464959558577" y2="177.55315839532614" /><path d="M 143.63769802327073 174.10635135553383 a86.0,86.0 0 0,1 -40.68552437913181,11.842963189579606" fill="none" id="id54" stroke="none" /><text fill="#e1ed5e" style="font-size:6.75px; font-family:Arial;" text-anchor="middle"><textPath startOffset="21.407464694133747" xlink:href="#id54">June</textPath></text><path d="M 109.3889696526874 118.78422872680471 l 18.63021387177256 37.27290762906011 a62.66958737535607,62.66958737535607 0 0,0 -0.9664239787849653,0.472726396146883 l -17.987629643725526 -37.587227775304214" fill="red" stroke="none" /><path d="M 108.73861861582097 119.09545874513695 l 17.31535978985627 37.83718606574531 a62.610988140466,62.610988140466 0 0,0 -0.9811636681425073,0.43886202886211634 l -16.663282718858135 -38.12885184551727" fill="red" stroke="none" /><path d="M 107.74402155503746 119.51999308798841 l 15.345326111793307 38.68024611066364 a62.61298442384054,62.61298442384054 0 0,0 -1.0024867662550376,0.38778341705599156 l -14.679067083044739 -38.93796941585767" fill="red" stroke="none" /><path d="M 107.06938296918513 119.77432235084164 l 14.005163950245075 39.174936162845285 a62.60312777467876,62.60312777467876 0 0,0 -1.0150477932955284,0.3530863133210363 l -13.330610384904524 -39.40958090873491" fill="red" stroke="none" /><path d="M 106.38641147887787 120.00534299687104 l 12.654316314858917 39.639465622740296 a62.61032271267449,62.61032271267449 0 0,0 -1.0266881478590453,0.31807061264358427 l -11.971987534128248 -39.85085282319053" fill="red" stroke="none" /><path d="M 103.2317021107853 120.74984581791261 l 5.821895944118302 37.380748307593954 a58.831399873912005,58.831399873912005 0 0,0 -0.9992230160466471,0.14685137322451103 l -5.17934782246397 -37.475180754117346" fill="red" stroke="none" /><path d="M 101.80034050326958 120.92268563240118 l 3.5676766754652043 41.46181090923963 a62.61502229645205,62.61502229645205 0 0,0 -1.071703828865942,0.08295665428294284 l -2.8554038518240263 -41.51694533051763" fill="red" stroke="none" /><path d="M 100.72087961077811 120.9876233191556 l 1.4288065499453926 41.59814373696632 a62.62267471605444,62.62267471605444 0 0,0 -1.0746846764259372,0.027680065095742924 l -0.7145085594487115 -41.61654151941211" fill="red" stroke="none" /><line stroke="#e1ed5e" stroke-width="0.3" x1="101.45913802915013" x2="101.54496967792366" y1="184.9874750549273" y2="189.98673829345242" /><path d="M 101.47630435890484 185.9873277026323 a86.0,86.0 0 0,1 -42.54439059252881,-10.42667462771756" fill="none" id="id55" stroke="none" /><text fill="#e1ed5e" style="font-size:6.75px; font-family:Arial;" text-anchor="middle"><textPath startOffset="22.145653131862474" xlink:href="#id55">July</textPath></text><path d="M 99.63950707515114 120.99690560180557 l -0.714299376623774 41.604357668563004 a62.61048906962237,62.61048906962237 0 0,0 -1.0744755552481484,-0.027674678876000024 l 1.4283882459426664 -41.585965272336956" fill="red" stroke="none" /><path d="M 98.91894614982273 120.97215588758144 l -2.1423237829556343 41.56050906294025 a62.61568772424356,62.61568772424356 0 0,0 -1.0729813748895283,-0.06454789506555246 l 2.8554495099776087 -41.51760919005" fill="red" stroke="none" /><path d="M 98.19965949673042 120.92268563240118 l -0.8604396687886688 9.999613219287205 a31.036564200909023,31.036564200909023 0 0,0 -0.5304303067969168,-0.050232301539978985 l 1.031969538970601 -9.983369162242042" fill="red" stroke="none" /><path d="M 97.84075906011543 120.88869738790638 l -2.589703623893297 25.053033371423325 a46.186525087221874,46.186525087221874 0 0,0 -0.7879511318364576,-0.08829156783105875 l 3.019390657330554 -25.004886043085296" fill="red" stroke="none" /><path d="M 96.41257539226777 120.69131181640829 l -7.1089130609317355 41.00232141532306 a62.61402415476477,62.61402415476477 0 0,0 -1.0574771219185806,-0.19270755802990513 l 7.811724916401373 -40.874245683361785" fill="red" stroke="none" /><path d="M 95.35216902796893 120.47920084513623 l -6.4551989167832495 28.442797491480324 a50.16611599436234,50.16611599436234 0 0,0 -0.8381750987703275,-0.19780704107732713 l 6.942506169293464 -28.32779430675677" fill="red" stroke="none" /><path d="M 95.00130118170881 120.39639698878247 l -1.5612475462822053 6.370422765862944 a27.558946570646622,27.558946570646622 0 0,0 -0.4585214312413587,-0.1165543547874454 l 1.6703742707489426 -6.342683179240235" fill="red" stroke="none" /><path d="M 94.30408787586889 120.21278271476187 l -11.289695163718225 40.06314533775303 a62.62346491155686,62.62346491155686 0 0,0 -1.0322135890051034,-0.3004623321173497 l 11.975768765104934 -39.86343931133316" fill="red" stroke="none" /><path d="M 92.59220618246901 119.65005319985036 l -14.815973963235114 39.301131181078524 a63.0010951832402,63.0010951832402 0 0,0 -1.00870074732813,-0.3901871184265797 l 15.488446973056773 -39.0410041745139" fill="red" stroke="none" /><path d="M 91.92203290615298 119.3841803445677 l -8.118548504503883 19.481560957000344 a42.10549803111271,42.10549803111271 0 0,0 -0.6647955375998783,-0.2837616838151669 l 8.451779117274192 -19.339324623525773" fill="red" stroke="none" /><path d="M 91.26138138417905 119.09545874513695 l -12.173568976086607 26.60144519215894 a50.25461789063351,50.25461789063351 0 0,0 -0.7813666629222658,-0.3657190517633261 l 12.628424352880362 -26.388549908825087" fill="red" stroke="none" /><path d="M 90.28995756902619 118.62028667847754 l -19.24252002044526 36.900069360572346 a62.61597884890234,62.61597884890234 0 0,0 -0.9488145133425147,-0.505190286164894 l 19.873123349574335 -36.56430860668488" fill="red" stroke="none" /><path d="M 89.97174638481275 118.45085714620012 l -9.94791186660811 18.303037377894228 a41.83175767337926,41.83175767337926 0 0,0 -0.6279859393418291,-0.34833321460242167 l 10.26064199410604 -18.129571247858657" fill="red" stroke="none" /><line stroke="#e1ed5e" stroke-width="0.3" x1="58.13341422392154" x2="55.670673884152215" y1="173.97424548756322" y2="178.32567169271397" /><path d="M 57.64086615596767 174.84453072859336 a86.0,86.0 0 0,1 -31.369924170532244,-30.572349798747897" fill="none" id="id56" stroke="none" /><text fill="#e1ed5e" style="font-size:6.75px; font-family:Arial;" text-anchor="middle"><textPath startOffset="22.145653131862474" xlink:href="#id56">August</textPath></text><path d="M 88.72937992617639 117.7192867562869 l -22.35307992838884 35.142754395317915 a62.64941018519442,62.64941018519442 0 0,0 -0.9024927005545335,-0.5849848648919841 l 22.953058261200386 -34.753855688722034" fill="red" stroke="none" /><path d="M 88.4268655584334 117.5232005979908 l -11.501856275386181 17.415276369637386 a41.87066239510598,41.87066239510598 0 0,0 -0.5963652639149246,-0.4012611644980628 l 11.79911782739811 -17.215265531082203" fill="red" stroke="none" /><path d="M 87.83215693770417 117.11559508785305 l -12.092746654622681 17.00996258587998 a41.87039407452396,41.87039407452396 0 0,0 -0.5822357225184226,-0.4214937623647685 l 12.382963387515057 -16.799868052142145" fill="red" stroke="none" /><path d="M 87.2517909369889 116.68781488649013 l -12.760268742633567 16.70360139423684 a42.01986579219245,42.01986579219245 0 0,0 -0.5694493301057297,-0.44280724337369504 l 13.045128017374525 -16.482093099242356" fill="red" stroke="none" /><path d="M 86.68645165197938 116.24036423190432 l -18.655667152154308 22.75688055658009 a50.42634074359947,50.42634074359947 0 0,0 -0.6647288262917239,-0.5545404287925114 l 19.043570312607926 -22.433277943875705" fill="red" stroke="none" /><path d="M 85.86807049272751 115.53346607816431 l -14.038394912359099 15.430655173505155 a41.8610079046764,41.8610079046764 0 0,0 -0.5273893540175266,-0.4881437126127348 l 14.301214037690594 -15.18739371476004" fill="red" stroke="none" /><path d="M 84.3458050057657 113.99807769240083 l -13.270054115952265 11.866164217698824 a38.80169063549015,38.80169063549015 0 0,0 -0.43973205099753065,-0.5003343535359516 l 13.471797230908388 -11.636617586351571" fill="red" stroke="none" /><path d="M 83.8745106332314 113.45245675266167 l -15.99936518789694 13.347239476885077 a41.835750240128334,41.835750240128334 0 0,0 -0.4553187517580754,-0.5554148433514006 l 16.226130758893646 -13.070622351835182" fill="red" stroke="none" /><path d="M 82.78059297857968 112.02048342749411 l -34.119767098579985 23.8182473094599 a62.610904961992055,62.610904961992055 0 0,0 -0.6076545246921082,-0.8865861115012678 l 34.52361136008742 -23.22902646288858" fill="red" stroke="none" /><path d="M 82.18462484594161 111.11811171558189 l -17.66693084554908 11.0254714881785 a41.8250202169902,41.8250202169902 0 0,0 -0.3748956520065675,-0.612363873050691 l 17.85359446201105 -10.720570499003252" fill="red" stroke="none" /><line stroke="#e1ed5e" stroke-width="0.3" x1="26.387840678322732" x2="22.057713659400548" y1="142.50000000000003" y2="145.00000000000006" /><path d="M 25.521815274538298 143.00000000000003 a86.0,86.0 0 0,1 -11.493303480769221,-40.785679425670985" fill="none" id="id57" stroke="none" /><text fill="#e1ed5e" style="font-size:6.75px; font-family:Arial;" text-anchor="middle"><textPath startOffset="21.40746469413373" xlink:href="#id57">September</textPath></text><path d="M 81.63589988554817 110.18625677009913 l -25.62021181561937 14.211099614559942 a50.297621161660004,50.297621161660004 0 0,0 -0.4123318755364846,-0.7586442090801017 l 25.860389040771185 -13.769200572005253" fill="red" stroke="none" /><path d="M 81.4637452351635 109.86951160357371 l -37.04792610805217 19.725933919801076 a62.97214907430941,62.97214907430941 0 0,0 -0.4998547204759046,-0.9585373348279193 l 37.38108889750302 -19.087050341868654" fill="red" stroke="none" /><path d="M 81.1358732173502 109.22738970284198 l -26.4817438999749 12.953547958587365 a50.48011473348231,50.48011473348231 0 0,0 -0.37408347205206177,-0.7816905812213151 l 26.700206629986877 -12.497044875300945" fill="red" stroke="none" /><path d="M 80.83023694016515 108.57439118712176 l -19.050921323454553 8.521234790044723 a41.86981182520638,41.86981182520638 0 0,0 -0.28783724732786153,-0.6586279512958734 l 19.19439245279938 -8.192944768973002" fill="red" stroke="none" /><path d="M 80.5471966667186 107.91128576633889 l -38.54764421377797 15.676991319426213 a62.61356667315811,62.61356667315811 0 0,0 -0.3963776437441215,-0.999130595276471 l 38.81108053248822 -15.012959706936178" fill="red" stroke="none" /><path d="M 80.05021161711548 106.5578916946017 l -19.77905528571047 6.501768334370367 a41.820279043975674,41.820279043975674 0 0,0 -0.21833229425051362,-0.6839228020651528 l 19.88775229573824 -6.161276498613823" fill="red" stroke="none" /><path d="M 79.64726062577567 105.17358676015961 l -20.175991004623548 5.128658015776209 a41.817630654362084,41.817630654362084 0 0,0 -0.17087972960375605,-0.6972476096340319 l 20.2610582607436 -4.7815545815340785" fill="red" stroke="none" /><path d="M 79.407916724674 104.11899336999214 l -20.407982521242012 4.082168063133016 a41.81225232124055,41.81225232124055 0 0,0 -0.1347423877434447,-0.7050291093871961 l 20.475051201267615 -3.7312363887125057" fill="red" stroke="none" /><path d="M 79.34024301695615 103.76489593502545 l -40.946829170044175 7.46187628542803 a62.62117750352353,62.62117750352353 0 0,0 -0.18364460216217557,-1.0592132636175147 l 41.06888858969858 -6.757869988889922" fill="red" stroke="none" /><path d="M 79.22317932658666 103.0534771498775 l -41.177692696557 6.05170279466814 a62.620013004888385,62.620013004888385 0 0,0 -0.14717338167500688,-1.0648732754623014 l 41.27551059478723 -5.3439412110057525" fill="red" stroke="none" /><path d="M 79.13060592940153 102.33845913500099 l -20.691658800677857 2.3185435272860806 a41.82115241795203,41.82115241795203 0 0,0 -0.07381952684728896,-0.7141369585711356 l 20.728410720006814 -1.963002046432014" fill="red" stroke="none" /><path d="M 79.06263194458094 101.62068470465958 l -41.49248227063938 3.211780544545521 a62.61660268745689,62.61660268745689 0 0,0 -0.07375651027564577,-1.0724034720789852 l 41.54150274208009 -2.4990336483121927" fill="red" stroke="none" /><path d="M 79.00696218219943 100.54070618675478 l -20.81370904870181 0.536087313785722 a41.82061175787142,41.82061175787142 0 0,0 -0.012324272211867573,-0.7178270706755078 l 20.819844752512342 -0.17871332714116192" fill="red" stroke="none" /><line stroke="#e1ed5e" stroke-width="0.3" x1="15.003131293944662" x2="10.003315487706104" y1="100.72959589197737" y2="100.7725132973878" /><path d="M 14.003168132696942 100.73817937305945 a86.0,86.0 0 0,1 10.791469493833615,-42.45332614584628" fill="none" id="id58" stroke="none" /><text fill="#e1ed5e" style="font-size:6.75px; font-family:Arial;" text-anchor="middle"><textPath startOffset="22.145653131862435" xlink:href="#id58">October</textPath></text><path d="M 79.00696218219943 99.45929381324524 l -38.71335331651462 -0.9971186557151405 a59.72619230731146,59.72619230731146 0 0,0 0.03519668210901339,-1.0247129966553266 l 38.69053194740876 1.6615379169346056" fill="red" stroke="none" /><path d="M 79.01933749520258 99.09900007780938 l -41.664620998839744 -1.789258097520637 a62.70302252255226,62.70302252255226 0 0,0 0.055412782585116255,-1.0749931785073394 l 41.62776662679806 2.5042230694046883" fill="red" stroke="none" /><path d="M 79.13060592940154 97.66154086499901 l -41.352443658258885 -4.6336275648513015 a62.611237675887814,62.611237675887814 0 0,0 0.12885366995485356,-1.06709323142142 l 41.26680790204436 5.3428144731961575" fill="red" stroke="none" /><path d="M 79.22317932658666 96.9465228501225 l -41.168434566716364 -6.050342168402761 a62.61065542657024,62.61065542657024 0 0,0 0.1654069399672,-1.0620312095220052 l 41.058506134610894 6.756161559856216" fill="red" stroke="none" /><path d="M 79.73907114497095 94.47779374421319 l -40.22325673456703 -10.963027487883974 a62.690506761551745,62.690506761551745 0 0,0 0.29190344208348284,-1.0358623377506206 l 40.02913480040897 11.651897749537607" fill="red" stroke="none" /><path d="M 79.94057633289273 93.78553927170692 l -39.752502958333295 -12.315427032482726 a62.61647791974597,62.61647791974597 0 0,0 0.32690358827421884,-1.0240208342295236 l 39.53523465428182 12.99601690040364" fill="red" stroke="none" /><path d="M 80.16572619554312 93.10060997987247 l -20.152079935094477 -7.009939489579921 a42.336484653241484,42.336484653241484 0 0,0 0.2446642180216473,-0.6843693623567176 l 20.028775547028886 7.35484380831756" fill="red" stroke="none" /><path d="M 80.41425534168474 92.42381321644754 l -39.39085058772502 -15.237227219181076 a63.23520099814169,63.23520099814169 0 0,0 0.40031292426076026,-1.0090500728939007 l 39.12347898849812 15.911178309288559" fill="red" stroke="none" /><path d="M 80.9802524753101 91.09779779509293 l -38.216394025740186 -17.88720206290375 a63.19531691988791,63.19531691988791 0 0,0 0.46830962440628227,-0.97858699954201 l 37.903705143374005 18.540601564510848" fill="red" stroke="none" /><path d="M 81.1358732173502 90.77261029715801 l -38.052693906244464 -18.61347943435291 a63.3611747969224,63.3611747969224 0 0,0 0.48631236441780057,-0.9729504965736413 l 37.72756162861492 19.26396178709032" fill="red" stroke="none" /><line stroke="#e1ed5e" stroke-width="0.3" x1="26.387840678322718" x2="22.05771365940052" y1="57.49999999999999" y2="54.99999999999999" /><path d="M 25.521815274538284 56.99999999999999 a86.0,86.0 0 0,1 29.574782752854787,-30.34633250058573" fill="none" id="id59" stroke="none" /><text fill="#e1ed5e" style="font-size:6.75px; font-family:Arial;" text-anchor="middle"><textPath startOffset="21.40746469413373" xlink:href="#id59">November</textPath></text><path d="M 81.99639281039701 89.18935116829357 l -35.6770603972874 -21.423049683365146 a62.61489752874113,62.61489752874113 0 0,0 0.5612442674881799,-0.9167503317977674 l 35.30404816534383 22.032337131287456" fill="red" stroke="none" /><path d="M 82.37810715431573 88.57770195909679 l -35.53911142054895 -23.036022651436927 a63.35193950883132,63.35193950883132 0 0,0 0.5993562917798688,-0.907501816690623 l 35.13843068984835 23.642704346466612" fill="red" stroke="none" /><path d="M 83.2033758604659 87.39550010848427 l -33.329280942535235 -25.0109137725895 a62.66997451266739,62.66997451266739 0 0,0 0.6531047619692024,-0.854935098362191 l 32.895024203211726 25.579369784192576" fill="red" stroke="none" /><path d="M 83.8745106332314 86.54754324733833 l -48.376468100305814 -40.357370257985025 a84.0,84.0 0 0,0 0.933221745971542,-1.0993328702017733 l 47.676551790827155 41.18186991063636" fill="red" stroke="none" /><path d="M 84.83555147118756 85.47280134310135 l -30.312028928004416 -29.038238027193408 a62.976640711902114,62.976640711902114 0 0,0 0.7545597153475379,-0.7742447410293649 l 29.809082411506076 29.554305460290504" fill="red" stroke="none" /><path d="M 85.08716467003674 85.21462403516908 l -29.7239359660531 -29.469886757861612 a62.85673894171896,62.85673894171896 0 0,0 0.766277763969555,-0.7597284207260024 l 29.213666281953568 29.97579518881629" fill="red" stroke="none" /><path d="M 85.60350026404147 84.71141617570332 l -28.525686071882525 -30.293290081216483 a62.610073177252666,62.610073177252666 0 0,0 0.7887981608836123,-0.7300998016411026 l 28.00145813968496 30.778507628989953" fill="red" stroke="none" /><path d="M 86.68645165197937 83.75963576809568 l -26.517288255366882 -32.34678002078859 a62.8267946911009,62.8267946911009 0 0,0 0.8399321052655108,-0.6765898483278235 l 25.958105379746126 32.797218162909815" fill="red" stroke="none" /><path d="M 87.25179093698888 83.31218511350988 l -17.707506148899466 -23.1796939674931 a50.169401544082945,50.169401544082945 0 0,0 0.688866523017743,-0.5169382813186477 l 17.306986636970972 23.480251276075748" fill="red" stroke="none" /><path d="M 88.12776184653039 82.6780497279521 l -23.62384277105648 -34.46789261006601 a62.78661948818833,62.78661948818833 0 0,0 0.8942719498456684,-0.6017060779452449 l 23.028674533113822 34.86834836206837" fill="red" stroke="none" /><path d="M 88.72937992617638 82.28071324371311 l -22.348282917679636 -35.13521269772068 a62.64047214769213,62.64047214769213 0 0,0 0.9122715891578116,-0.5693249429494864 l 21.741847199732128 35.513673437511706" fill="red" stroke="none" /><line stroke="#e1ed5e" stroke-width="0.3" x1="56.869717070023135" x2="54.33264160355391" y1="26.7553504044142" y2="22.446841604673864" /><path d="M 56.362301976729285 25.89364864446614 a86.0,86.0 0 0,1 42.16139366436587,-11.88097634709845" fill="none" id="id60" stroke="none" /><text fill="#e1ed5e" style="font-size:6.75px; font-family:Arial;" text-anchor="middle"><textPath startOffset="22.145653131862474" xlink:href="#id60">December</textPath></text><path d="M 89.34428304082924 81.90426304109057 l -19.905326522783266 -33.80359615572229 a60.228881414562174,60.228881414562174 0 0,0 0.8954243061890045,-0.5169734642171528 l 19.322109748733862 34.140316517215616" fill="red" stroke="none" /><path d="M 90.28995756902619 81.37971332152246 l -9.627846338320674 -18.46266483285407 a41.82223373811324,41.82223373811324 0 0,0 0.6394276562114272,-0.3264963173639903 l 9.309491460395666 18.625219101890895" fill="red" stroke="none" /><path d="M 90.61103034731259 81.2157712731953 l -18.604349214794226 -37.22116098905656 a62.611736746731445,62.611736746731445 0 0,0 0.9655318676824506,-0.47229001990238956 l 17.96265709784972 37.53504475905616" fill="red" stroke="none" /><path d="M 91.26138138417902 80.90454125486306 l -17.316796213469296 -37.8403249105729 a62.614440047134465,62.614440047134465 0 0,0 0.9812177622482071,-0.43888622446754966 l 16.66466504836547 38.1320148859503" fill="red" stroke="none" /><path d="M 91.92203290615298 80.6158196554323 l -16.198094060578835 -38.86952903629604 a63.10960150249371,63.10960150249371 0 0,0 1.0035795179908011,-0.40814705315435 l 15.528460081397593 39.14186334602969" fill="red" stroke="none" /><path d="M 92.592206182469 80.34994680014964 l -14.6782601950882 -38.935829049688884 a62.61069701580721,62.61069701580721 0 0,0 1.0089590044117018,-0.37050372195840536 l 14.00771203902237 39.18206362065601" fill="red" stroke="none" /><path d="M 93.27111125876988 80.10723608172694 l -13.33471484201437 -39.42171500686603 a62.61593725966537,62.61593725966537 0 0,0 1.0211683224909407,-0.3356783105829294 l 12.656023781875668 39.64481423885099" fill="red" stroke="none" /><path d="M 94.6519064749342 79.69241777938228 l -10.599786041624359 -40.24911410998446 a62.62146862818232,62.62146862818232 0 0,0 1.0418861747209498,-0.26484339134987445 l 9.90729457367803 40.4251427331696" fill="red" stroke="none" /><path d="M 95.35216902796891 79.52079915486377 l -9.221318248988982 -40.63082965244761 a62.66409759607609,62.66409759607609 0 0,0 1.051078585808836,-0.22907768570559014 l 8.522477246561028 40.78313879628691" fill="red" stroke="none" /><path d="M 96.05791012581881 79.37332000966035 l -7.812513430663464 -40.878371523175275 a62.6182246676987,62.6182246676987 0 0,0 1.0575480636347758,-0.19272048597379257 l 7.10963063347765 41.00646018308043" fill="red" stroke="none" /><path d="M 96.76829788921471 79.25015418208739 l -6.4033469564123315 -41.11408091133409 a62.60974046335691,62.60974046335691 0 0,0 1.0633963127475277,-0.1562826379106931 l 5.696625538057119 41.21794462254367" fill="red" stroke="none" /><path d="M 97.48249496171623 79.15144685158666 l -4.990259491073045 -41.32650725296501 a62.62670887204048,62.62670887204048 0 0,0 1.0684238757024203,-0.11971912379140029 l 4.280099713769825 41.406082137263375" fill="red" stroke="none" /><path d="M 98.1996594967304 79.07731436759882 l -0.6835888113375787 -7.944338182398394 a28.973694427258856,28.973694427258856 0 0,0 0.4959068625269209,-0.03838632749377674 l 0.5471129540354406 7.954902276887224" fill="red" stroke="none" /><path d="M 98.9189461498227 79.02784411241856 l -0.23313913215965013 -4.522836880277301 a25.528841717320297,25.528841717320297 0 0,0 0.43784910229894725,-0.01880312440145258 l 0.1554642692598828 4.526172573104581" fill="red" stroke="none" /><path d="M 99.27912038922189 79.0123766808444 l -0.7188076021002696 -20.92729904725996 a41.93964015407822,41.93964015407822 0 0,0 0.7197375201997049,-0.018537885435597715 l 0.3594567678298207 20.936554650045604" fill="red" stroke="none" /></svg>